/* XPM */
static char *result[] = {
/* columns rows colors chars-per-pixel */
"36 36 250 2 ",
"   c #1D2027",
".  c #232426",
"X  c #252525",
"o  c #272625",
"O  c #262725",
"+  c #272725",
"@  c #242426",
"#  c #252526",
"$  c #292825",
"%  c #2C2A24",
"&  c #2F2C24",
"*  c #332E23",
"=  c #332F23",
"-  c #302D24",
";  c #312E24",
":  c #353023",
">  c #3B3422",
",  c #473D1F",
"<  c #493E1F",
"1  c #4A3F1F",
"2  c #433A20",
"3  c #443B20",
"4  c #453B20",
"5  c #4E421E",
"6  c #50421E",
"7  c #51431E",
"8  c #53451D",
"9  c #52441E",
"0  c #54461D",
"q  c #55461D",
"w  c #56461D",
"e  c #56471D",
"r  c #57471D",
"t  c #57481D",
"y  c #5D4B1B",
"u  c #5E4C1B",
"i  c #58481C",
"p  c #59491C",
"a  c #5A491C",
"s  c #5C4A1C",
"d  c #5D4C1C",
"f  c #604E1B",
"g  c #614E1B",
"h  c #614F1B",
"j  c #624F1B",
"k  c #634F1B",
"l  c #63501A",
"z  c #63501B",
"x  c #64501A",
"c  c #66521A",
"v  c #695419",
"b  c #6A5419",
"n  c #6A5519",
"m  c #6B5519",
"M  c #6B5619",
"N  c #69541A",
"B  c #6C5619",
"V  c #6D5719",
"C  c #6F5718",
"Z  c #6E5719",
"A  c #6E5818",
"S  c #755C17",
"D  c #765C17",
"F  c #765D17",
"G  c #775E17",
"H  c #795F16",
"J  c #785E17",
"K  c #785F17",
"L  c #795F17",
"P  c #7A5F16",
"I  c #705918",
"U  c #715A18",
"Y  c #725A18",
"T  c #735B18",
"R  c #745B18",
"E  c #7B6016",
"W  c #7E6215",
"Q  c #7D6116",
"!  c #7D6216",
"~  c #7D6316",
"^  c #7F6316",
"/  c #836615",
"(  c #836715",
")  c #856714",
"_  c #8B6B14",
"`  c #947212",
"'  c #957212",
"]  c #967612",
"[  c #977612",
"{  c #987411",
"}  c #997411",
"|  c #987511",
" . c #9A7511",
".. c #9B7611",
"X. c #9A7711",
"o. c #9B7711",
"O. c #9D7710",
"+. c #9C7811",
"@. c #9E7810",
"#. c #9F7910",
"$. c #9E7A10",
"%. c #A47C0F",
"&. c #A57E0F",
"*. c #A57F0F",
"=. c #A67E0F",
"-. c #A77F0F",
";. c #A87F0E",
":. c #A27B10",
">. c #A17C10",
",. c #A17D10",
"<. c #A37D10",
"1. c #A6800F",
"2. c #A7800F",
"3. c #A6820F",
"4. c #A7830F",
"5. c #AB810D",
"6. c #A8820F",
"7. c #A9830F",
"8. c #AA820E",
"9. c #AB830E",
"0. c #AD820D",
"q. c #AC810E",
"w. c #AD820E",
"e. c #AC830E",
"r. c #AE830E",
"t. c #AA840E",
"y. c #AF850D",
"u. c #AD840E",
"i. c #AE870E",
"p. c #B0840D",
"a. c #B0850D",
"s. c #B1870D",
"d. c #B2860D",
"f. c #B2870D",
"g. c #B0890D",
"h. c #B2880D",
"j. c #B4890D",
"k. c #B68A0C",
"l. c #B78B0C",
"z. c #B58D0C",
"x. c #B48C0D",
"c. c #B68D0C",
"v. c #B98B0B",
"b. c #BB8E0B",
"n. c #BC8D0B",
"m. c #BC8E0B",
"M. c #BC8F0B",
"N. c #BD8F0B",
"B. c #BE8F0B",
"V. c #B88B0C",
"C. c #B88C0C",
"Z. c #B98C0C",
"A. c #B88D0C",
"S. c #B98D0C",
"D. c #B88E0C",
"F. c #BA8E0C",
"G. c #BA900B",
"H. c #BD900B",
"J. c #BC910B",
"K. c #BD930B",
"L. c #BE930B",
"P. c #BB940B",
"I. c #BB950B",
"U. c #C0900A",
"Y. c #C0910A",
"T. c #C0930A",
"R. c #C0920B",
"E. c #C2930A",
"W. c #C4930A",
"Q. c #C0940A",
"!. c #C1940A",
"~. c #C0940B",
"^. c #C2940A",
"/. c #C59509",
"(. c #C79509",
"). c #C79609",
"_. c #C4940A",
"`. c #C4950A",
"'. c #C5950A",
"]. c #C89609",
"[. c #C59809",
"{. c #C5980A",
"}. c #CF9B08",
"|. c #CC9C08",
" X c #CD9D08",
".X c #CE9D08",
"XX c #CF9F08",
"oX c #D19D07",
"OX c #D29D07",
"+X c #D39F07",
"@X c #D19C08",
"#X c #D29D08",
"$X c #D1A007",
"%X c #D3A007",
"&X c #D6A107",
"*X c #D8A106",
"=X c #D9A106",
"-X c #D9A306",
";X c #DAA306",
":X c #D8A406",
">X c #DAA406",
",X c #DCA606",
"<X c #DEA805",
"1X c #E0A905",
"2X c #E1A905",
"3X c #E4AA05",
"4X c #E6AB04",
"5X c #E5AC04",
"6X c #EAAE03",
"7X c #E8AE04",
"8X c #E9AE04",
"9X c #E9AF04",
"0X c #ECB003",
"qX c #EFB302",
"wX c #EFB402",
"eX c #EAB304",
"rX c #F1B202",
"tX c #F1B302",
"yX c #F1B402",
"uX c #F0B502",
"iX c #F2B502",
"pX c #F2B702",
"aX c #F3B702",
"sX c #F7B501",
"dX c #F4B502",
"fX c #F4B602",
"gX c #F4B702",
"hX c #F8B601",
"jX c #F7B801",
"kX c #F9B901",
"lX c #F8BA01",
"zX c #F9BA01",
"xX c #FBBB00",
"cX c #FBBA01",
"vX c #FCBA00",
"bX c #FDBA00",
"nX c #FCBB00",
"mX c #FDBB00",
"MX c #FEBA00",
"NX c #FEBB00",
"BX c #FFBB00",
"VX c #FDBC00",
"CX c #FDBD00",
"ZX c #FEBC00",
"AX c #FFBC00",
"SX c #FEBD00",
"DX c #FEBE00",
"FX c #FDC000",
"GX c #FEC000",
"HX c None",
/* pixels */
"HXHXHXHXHXHXHXHXHXHXHXHXHXHXHXHXHXHXHXHXHXHXHXHXHXHXHXHXHXHXHXHXHXHXHXHX",
"HXHXHXHXHXHXHXHXHXHXHXHXHXHXHXHXHXHXHXHXHXHXHXHXHXHXHXHXHXHXHXHXHXHXHXHX",
"HXHXHXHXHXHXHXHXHXHXHXHXHXHXHXHXHXHXHXHXHXHXHXHXHXHXHXHXHXHXHXHXHXHXHXHX",
"HXHXHXHXHXHXHXHXHXHXHXHXHXHXHXHXHXHXHXHXHXHXHXHXHXHXHXHXHXHXHXHXHXHXHXHX",
"HXHXHXHXHXHXHXHXHXHXHXHXHXHXHXHXHXHXHXHXHXHXHXHXHXHXHXHXHXHXHXHXHXHXHXHX",
"HXHXHXHXHXHXHXHXHXHXHXHXHXHXHXHXHXHXHXHXHXHXHXHXHXHXHXHXHXHXHXHXHXHXHXHX",
"HXHXHXHXHXHXHXHXHXHXHXHXHXHXHXHXHXHXHXHXHXHXHXHXHXHXHXHXHXHXHXHXHXHXHXHX",
"HXHXHXHXHXHXHXHXHXHXHXHXHXHXD 0 u Y Y d q J HXHXHXHXHXHXHXHXHXHXHXHXHXHX",
"HXHXHXHXHXHXHXHXHXHXHXHXf K 7.G.L.P.I.!.L.3.F g HXHXHXHXHXHXHXHXHXHXHXHX",
"HXHXHXHXHXHXHXHXHXHXa A x.A.H.8XZXDXMXsX*Xq./.g.V HXHXHXHXHXHXHXHXHXHXHX",
"HXHXHXHXHXHXHXHXHXs I [.$.zXbX2.s.' y.:.NXmXOX=.|.Z HXHXHXHXHXHXHXHXHXHX",
"HXHXHXHXHXHXHXHXHXT {.T.xXVXVX`.GX@.SXU.ZXNXNX4Xa..XZ HXHXHXHXHXHXHXHXHX",
"HXHXHXHXHXHXHXHXb z.$.xXY.9.8.Z.DX .ZXv.u.'.jXNX2Xp.i.c HXHXHXHXHXHXHXHX",
"HXHXHXHXHXHXHXHX~ A.zXNXS.FXCXZXMXZX7X[ +X9X` kXNXb.-XR HXHXHXHXHXHXHXHX",
"HXHXHXHXHXHXHXW t.H.bXNXk.R.).NXNX6X] eXl.- 7 oXMXxX0.,.E HXHXHXHXHXHXHX",
"HXHXHXHXHXHXHXq J.8XMXBXbXcXV.0X+.V.,X.XV X 2 ].BXMXb.%Xw HXHXHXHXHXHXHX",
"HXHXHXHXHXHXHXh K.SXBXBXBXAXd.>.qXF.n.f.n O e &XNXMX).rX8 HXHXHXHXHXHXHX",
"HXHXHXHXHXHXHXR P.SXBXBXBXAXZ.iX( 6 7 < & z o.vXBXBX@XuXb HXHXHXHXHXHXHX",
"HXHXHXHXHXHXHXY I.bXBXBXBXAXf.1 @ 9 q 0 * 1 / yXBXBX}.pXB HXHXHXHXHXHXHX",
"HXHXHXHXHXHXHXy Q.hXMXBXBXAXr.=   O.E.M.H # , W.NXMXW.vXe HXHXHXHXHXHXHX",
"HXHXHXHXHXHXHX0 ~.=XMXBXMXnXw.=   ;.3X;XP X > j.ZXNXM.<Xi HXHXHXHXHXHXHX",
"HXHXHXHXHXHXHXP 4.5.mXNXC.:...; . k N j : # < (.NXlXm.<.Q HXHXHXHXHXHXHX",
"HXHXHXHXHXHXHXHXL /.OXVXl.% # + # $ o $ % 3 ) fXNX1.gXS HXHXHXHXHXHXHXHX",
"HXHXHXHXHXHXHXHXl c.=.5XN.-.&._ 5 #.2 } e.B.dXMX X>Xh.x HXHXHXHXHXHXHXHX",
"HXHXHXHXHXHXHXHXHXM XXa.2XmXmX| 8 %.4 :.mXNXNX.X^.:Xv HXHXHXHXHXHXHXHXHX",
"HXHXHXHXHXHXHXHXHXHXG $Xp.m.xXX./ ' ^ { NXlX1.>X:XS HXHXHXHXHXHXHXHXHXHX",
"HXHXHXHXHXHXHXHXHXHXy U D.-X0.b.].#X}._.b.m.gXj.V HXHXHXHXHXHXHXHXHXHXHX",
"HXHXHXHXHXHXHXHXHXHXHXHXC ! 6.>XtXwXaXmX1X*.L Z HXHXHXHXHXHXHXHXHXHXHXHX",
"HXHXHXHXHXHXHXHXHXHXHXHXHXHXE r p B m r t J HXHXHXHXHXHXHXHXHXHXHXHXHXHX",
"HXHXHXHXHXHXHXHXHXHXHXHXHXHXHXHXHXHXHXHXHXHXHXHXHXHXHXHXHXHXHXHXHXHXHXHX",
"HXHXHXHXHXHXHXHXHXHXHXHXHXHXHXHXHXHXHXHXHXHXHXHXHXHXHXHXHXHXHXHXHXHXHXHX",
"HXHXHXHXHXHXHXHXHXHXHXHXHXHXHXHXHXHXHXHXHXHXHXHXHXHXHXHXHXHXHXHXHXHXHXHX",
"HXHXHXHXHXHXHXHXHXHXHXHXHXHXHXHXHXHXHXHXHXHXHXHXHXHXHXHXHXHXHXHXHXHXHXHX",
"HXHXHXHXHXHXHXHXHXHXHXHXHXHXHXHXHXHXHXHXHXHXHXHXHXHXHXHXHXHXHXHXHXHXHXHX",
"HXHXHXHXHXHXHXHXHXHXHXHXHXHXHXHXHXHXHXHXHXHXHXHXHXHXHXHXHXHXHXHXHXHXHXHX",
"HXHXHXHXHXHXHXHXHXHXHXHXHXHXHXHXHXHXHXHXHXHXHXHXHXHXHXHXHXHXHXHXHXHXHXHX"
};
