/* XPM */
static char *result[] = {
/* columns rows colors chars-per-pixel */
"36 36 182 2 ",
"   c #3D883D",
".  c #3D893D",
"X  c #3E883E",
"o  c #3E893E",
"O  c #3E8A3E",
"+  c #3F8A3E",
"@  c #3F8A3F",
"#  c #3F8B3F",
"$  c #408B40",
"%  c #418D41",
"&  c #428D42",
"*  c #428E42",
"=  c #428F42",
"-  c #429042",
";  c #439043",
":  c #439044",
">  c #449044",
",  c #449144",
"<  c #459245",
"1  c #469246",
"2  c #469346",
"3  c #469446",
"4  c #479447",
"5  c #479647",
"6  c #479548",
"7  c #489448",
"8  c #489548",
"9  c #489648",
"0  c #499649",
"q  c #499749",
"w  c #499849",
"e  c #499949",
"r  c #4A984A",
"t  c #4A9A4A",
"y  c #4B9C4B",
"u  c #4C9A4C",
"i  c #4C9D4C",
"p  c #4D9D4D",
"a  c #4C9E4C",
"s  c #4C9E4D",
"d  c #4D9E4D",
"f  c #4D9F4D",
"g  c #4E9E4E",
"h  c #4E9F4E",
"j  c #509D4F",
"k  c #4FA04F",
"l  c #50A150",
"z  c #53A051",
"x  c #51A251",
"c  c #51A351",
"v  c #52A252",
"b  c #52A352",
"n  c #53A253",
"m  c #55A253",
"M  c #53A453",
"N  c #53A553",
"B  c #54A453",
"V  c #54A454",
"C  c #55A554",
"Z  c #55A555",
"A  c #57A455",
"S  c #55A655",
"D  c #55A755",
"F  c #56A656",
"G  c #56A756",
"H  c #57A757",
"J  c #59A556",
"K  c #5AA857",
"L  c #58A958",
"P  c #59A959",
"I  c #5BA959",
"U  c #59AA59",
"Y  c #5AAB5A",
"T  c #5BAC5B",
"R  c #5BAD5B",
"E  c #5DAC5B",
"W  c #5BAD5C",
"Q  c #5CAC5C",
"!  c #5CAD5C",
"~  c #5DAD5C",
"^  c #5EAD5C",
"/  c #5EAD5D",
"(  c #5FAE5D",
")  c #61AC5C",
"_  c #60AE5D",
"`  c #61AE5D",
"'  c #61AE5E",
"]  c #62AF5E",
"[  c #63AF5F",
"{  c #64AC5D",
"}  c #64AE5E",
"|  c #65AE5E",
" . c #64AF5F",
".. c #65B05F",
"X. c #66AF60",
"o. c #68AF60",
"O. c #70AF61",
"+. c #65B060",
"@. c #66B060",
"#. c #67B060",
"$. c #67B061",
"%. c #68B060",
"&. c #68B061",
"*. c #69B061",
"=. c #69B161",
"-. c #6BB061",
";. c #6AB161",
":. c #6AB162",
">. c #6BB162",
",. c #6CB162",
"<. c #6DB162",
"1. c #6CB262",
"2. c #6EB263",
"3. c #6FB264",
"4. c #6FB364",
"5. c #73B063",
"6. c #70B264",
"7. c #70B364",
"8. c #71B365",
"9. c #72B365",
"0. c #73B365",
"q. c #73B465",
"w. c #73B466",
"e. c #74B466",
"r. c #76B467",
"t. c #77B567",
"y. c #78B568",
"u. c #79B568",
"i. c #7AB668",
"p. c #7AB669",
"a. c #7BB669",
"s. c #7CB669",
"d. c #7CB769",
"f. c #7CB76A",
"g. c #7DB76A",
"h. c #7EB76A",
"j. c #7FB76A",
"k. c #7BB773",
"l. c #7AB77A",
"z. c #80B86B",
"x. c #81B86B",
"c. c #81B86C",
"v. c #82B86C",
"b. c #83B86C",
"n. c #83B96C",
"m. c #83B96D",
"M. c #84B96D",
"N. c #85B96D",
"B. c #86B96E",
"V. c #86BA6E",
"C. c #87BA6E",
"Z. c #88BA6E",
"A. c #88BA6F",
"S. c #89BB6F",
"D. c #8ABB6F",
"F. c #8ABB70",
"G. c #8BBB70",
"H. c #8CBB70",
"J. c #8DBB70",
"K. c #8CBB71",
"L. c #8DBB71",
"P. c #8DBC71",
"I. c #8EBC73",
"U. c #99C183",
"Y. c #9FC289",
"T. c #99C29A",
"R. c #A8C697",
"E. c #AAC799",
"W. c #A9C6A8",
"Q. c #ABC9AD",
"!. c #C6D2BF",
"~. c #C3D2C5",
"^. c #C8D3C8",
"/. c #D1D6CF",
"(. c #D5D9D8",
"). c #D7D9DA",
"_. c #DCDBDF",
"`. c #DDDBE0",
"'. c #DEDBE1",
"]. c #DDDCE0",
"[. c #DEDCE1",
"{. c None",
/* pixels */
"{.{.{.{.{.{.{.{.{.{.{.{.{.{.{.{.{.{.{.{.{.{.{.{.{.{.{.{.{.{.{.{.{.{.{.{.",
"{.{.{.{.{.{.{.{.{.{.{.{.{.{.{.{.{.{.{.{.{.{.{.{.{.{.{.{.{.{.{.{.{.{.{.{.",
"{.{.{.{.{.{.{.{.{.{.{.{.{.{.{.{.{.{.{.{.{.{.{.{.{.{.{.{.{.{.{.{.{.{.{.{.",
"{.{.{.{.{.{.{.{.{.{.{.{.{.{.{.{.{.{.{.{.{.{.{.{.{.{.{.{.{.{.{.{.{.{.{.{.",
"{.{.{.{.{.{.{.{.{.{.{.{.{.{.{.{.{.{.{.{.{.{.{.{.{.{.{.{.{.{.{.{.{.{.{.{.",
"{.{.{.{.{.{.{.{.{.{.{.{.{.{.{.{.{.{.{.{.{.{.{.{.{.{.{.{.{.{.{.{.{.{.{.{.",
"{.{.{.{.{.{.{.{.T R W {.{.{.{.{.{.R Q {.{.{.{.{.{.{.{.{.{.{.{.{.{.{.{.{.",
"{.{.{.{.{.{. .a.h.y.f.j.@.{.{...$.[ +.*.{.{.{.{.{.{.{.{.{.{.{.{.{.{.{.{.",
"{.{.{.{.T ` C.H.H.H.H.Z.b.q.+.z.H.G.I.R.^.).{.{.{.{.{.{.{.{.{.{.{.{.{.{.",
"{.{.{.T T W v.P.L.m.;.' %._ r.q.w.U.!.`.`.[.`.(.{.{.{.{.{.{.{.{.{.{.{.{.",
"{.{.  > n ] F.H.x.~ ' 9. .X.7.J.M.k.Q.'.].[.[.`._.T.{.{.{.{.{.{.{.{.{.{.",
"{.{.. o o 6 { M.g.^ 7. .! =.D.K.H.H.#.l.~.[.'./.Y.N.#.{.{.{.{.{.{.{.{.{.",
"{.{.{.X o o + u -.z.p.d.C.J.K.P.P.G.( Q P W.E.P.P.J. .! T {.{.{.{.{.{.{.",
"{.{.{.. o o o o % z r.G.H.H.P.P.P.M.} b s 5.H.P.P.P.>.U x {.{.{.{.{.{.{.",
"{.{.{.. o o o o o   > J i.e.q.y.6.C d d a O.B.A.C.<.M d p {.{.{.{.{.{.{.",
"{.{.{.. o o o o o o o O 0 H T G k d d f v C / _ K k d d k S {.{.{.{.{.{.",
"{.{.u , o o o o o o o o o $ p d d d l b h i F l d d g M N k {.{.{.{.{.{.",
"{.{.. * q % o o o o o o o o w i k b k d i t 5 d d b D k d {.{.{.{.{.{.{.",
"{.{.  o o 2 7 # o o o o o o e x l d d d d t 5 l G G Y U x {.{.{.{.{.{.{.",
"{.{.{.  X o O 8 1 O o o o o < d d d d d i - 3 V ) 4.&.=.4. .{.{.{.{.{.{.",
"{.{.{.{.{.  o X & 4 > o o o = i d d d d i : A 0.S.L.L.P.J.Z.7.T {.{.{.{.",
"{.{.{.{.{.{.    o   > q $ o = i d d d d V -.9.:.e.8.N.P.P.H.3.! T {.{.{.",
"{.{.{.{.{.{.{.{.  X o o 1 9 ; i d d c | c.C.[ &.1._ ~ t.H.H.w.R L l {.{.",
"{.{.{.{.{.{.{.{.{.{.  X o @ i a k L t.H.H.J.,.R &.7. . .D.N.o.b d d {.{.",
"{.{.{.{.{.{.{.{.{.{.{.{.  O i b T ! w.H.P.P.H.v.2.=.>.g.6.Z d d i {.{.{.",
"{.{.{.{.{.{.{.{.{.{.{.{.{.O y # r P s.H.P.P.K.H.H.H.u.I k d a {.{.{.{.{.",
"{.{.{.{.{.{.{.{.{.{.{.{.{.{.{.  o # j 0.B.n.c.V.h.) l a d {.{.{.{.{.{.{.",
"{.{.{.{.{.{.{.{.{.{.{.{.{.{.{.{.{.  o , m ~ ! E B d d d {.{.{.{.{.{.{.{.",
"{.{.{.{.{.{.{.{.{.{.{.{.{.{.{.{.{.{.  o o 4 M h d a {.{.{.{.{.{.{.{.{.{.",
"{.{.{.{.{.{.{.{.{.{.{.{.{.{.{.{.{.{.{.{.    w i {.{.{.{.{.{.{.{.{.{.{.{.",
"{.{.{.{.{.{.{.{.{.{.{.{.{.{.{.{.{.{.{.{.{.{.{.{.{.{.{.{.{.{.{.{.{.{.{.{.",
"{.{.{.{.{.{.{.{.{.{.{.{.{.{.{.{.{.{.{.{.{.{.{.{.{.{.{.{.{.{.{.{.{.{.{.{.",
"{.{.{.{.{.{.{.{.{.{.{.{.{.{.{.{.{.{.{.{.{.{.{.{.{.{.{.{.{.{.{.{.{.{.{.{.",
"{.{.{.{.{.{.{.{.{.{.{.{.{.{.{.{.{.{.{.{.{.{.{.{.{.{.{.{.{.{.{.{.{.{.{.{.",
"{.{.{.{.{.{.{.{.{.{.{.{.{.{.{.{.{.{.{.{.{.{.{.{.{.{.{.{.{.{.{.{.{.{.{.{.",
"{.{.{.{.{.{.{.{.{.{.{.{.{.{.{.{.{.{.{.{.{.{.{.{.{.{.{.{.{.{.{.{.{.{.{.{."
};
