/* XPM */
static char *result[] = {
/* columns rows colors chars-per-pixel */
"36 36 139 2 ",
"   c #3E2C21",
".  c #393330",
"X  c #3C3431",
"o  c #3A3A3B",
"O  c #3F3D3C",
"+  c #492714",
"@  c #4B2815",
"#  c #452A18",
"$  c #4F2E18",
"%  c #522C17",
"&  c #532C17",
"*  c #512F18",
"=  c #542D18",
"-  c #552E18",
";  c #562E18",
":  c #572E18",
">  c #572F18",
",  c #582F18",
"<  c #582F19",
"1  c #57331B",
"2  c #5C321A",
"3  c #5D321A",
"4  c #5F331B",
"5  c #5E361D",
"6  c #5F371D",
"7  c #60331B",
"8  c #60341B",
"9  c #61341B",
"0  c #62351B",
"q  c #63361C",
"w  c #64361C",
"e  c #66371D",
"r  c #67371D",
"t  c #69381D",
"y  c #69391D",
"u  c #6E3B1E",
"i  c #4A362A",
"p  c #4B372B",
"a  c #573825",
"s  c #5B3B27",
"d  c #533A2B",
"f  c #54392A",
"g  c #563A2B",
"h  c #523C2E",
"j  c #553D2E",
"k  c #563E2F",
"l  c #583C2D",
"z  c #593D2E",
"x  c #453932",
"c  c #473C36",
"v  c #503F35",
"b  c #653E25",
"n  c #753F21",
"m  c #5F402F",
"M  c #584032",
"N  c #594032",
"B  c #5E4030",
"V  c #5C4435",
"C  c #6F4122",
"Z  c #714123",
"A  c #764424",
"S  c #774525",
"D  c #794122",
"F  c #7B4726",
"G  c #7D4927",
"H  c #614130",
"J  c #3F4144",
"K  c #404043",
"L  c #434242",
"P  c #444447",
"I  c #434448",
"U  c #434548",
"Y  c #4A4B4D",
"T  c #4C4C4D",
"R  c #4C4C4E",
"E  c #4C4C4F",
"W  c #4D4D4F",
"Q  c #4E4D4F",
"!  c #4E4E4F",
"~  c #5E4E44",
"^  c #4E4E50",
"/  c #595A5B",
"(  c #765A48",
")  c #6F6C6B",
"_  c #6B6D6F",
"`  c #6E6C6C",
"'  c #727375",
"]  c #834A27",
"[  c #844D29",
"{  c #874C28",
"}  c #874C29",
"|  c #884D29",
" . c #8D502A",
".. c #8F532C",
"X. c #90522B",
"o. c #90542C",
"O. c #92552D",
"+. c #93552D",
"@. c #95542D",
"#. c #94562E",
"$. c #97572E",
"%. c #98572D",
"&. c #98592F",
"*. c #99592F",
"=. c #9C5A2F",
"-. c #835131",
";. c #965C36",
":. c #9E5C31",
">. c #9F5C31",
",. c #9A5C34",
"<. c #935C39",
"1. c #A15E32",
"2. c #A25E32",
"3. c #A46033",
"4. c #A56033",
"5. c #A06036",
"6. c #A76134",
"7. c #AA6335",
"8. c #AB6335",
"9. c #B06736",
"0. c #B16737",
"q. c #B26837",
"w. c #B06839",
"e. c #B76A38",
"r. c #B76A39",
"t. c #B86B39",
"y. c #BF6F3B",
"u. c #C4713B",
"i. c #C1703C",
"p. c #C2713C",
"a. c #C3723C",
"s. c #C6733D",
"d. c #C6733E",
"f. c #C7733E",
"g. c #C6743E",
"h. c #C7743E",
"j. c #C8743E",
"k. c #CA763F",
"l. c None",
/* pixels */
"l.l.l.l.l.l.l.@ u 0 2 < ; ; ; ; ; ; ; ; ; ; ; ; ; ; : D + l.l.l.l.l.l.l.",
"l.l.l.l.l.l.l.7  .o.1   X o J U I I I I I I I I I I U m e l.l.l.l.l.l.l.",
"l.l.l.l.l.l.l.> @.s.a.e.2.[ b d c L Y W R W W W W W W H e l.l.l.l.l.l.l.",
"l.l.l.l.l.l.l.< X.s.h.h.s.h.i.8...G a . P ! R W W W W H e l.l.l.l.l.l.l.",
"l.l.l.l.l.l.l.< X.s.h.h.h.h.h.d.j.p.6.>.A s x K E W W B q l.l.l.l.l.l.l.",
"l.l.l.l.l.l.l.< X.s.h.h.h.h.h.h.h.h.s.h.h.q.&.$.v W W z w l.l.l.l.l.l.l.",
"l.l.l.l.l.l.l.< X.s.h.h.h.h.h.h.h.h.h.h.h.g.h.7.V Q W z w l.l.l.l.l.l.l.",
"l.l.l.l.l.l.l.<  .s.h.h.h.h.h.h.h.h.h.h.h.h.d.3.M ^ W z w l.l.l.l.l.l.l.",
"l.l.l.l.l.l.l., | s.h.h.h.h.h.h.h.h.h.h.h.h.d.3.N ^ W z w l.l.l.l.l.l.l.",
"l.l.l.l.l.l.l., | s.h.h.h.h.h.h.h.h.h.h.h.h.d.3.N ^ W z w l.l.l.l.l.l.l.",
"l.l.l.l.l.l.l., | s.h.h.h.h.h.h.h.h.h.h.h.h.d.3.N ^ W z w l.l.l.l.l.l.l.",
"l.l.l.l.l.l.l., | s.h.h.h.h.h.h.h.h.h.h.h.h.d.3.k Q W z w l.l.l.l.l.l.l.",
"l.l.l.l.l.l.l., | s.h.h.h.h.h.h.h.h.h.h.h.h.d.3.j ! W z w l.l.l.l.l.l.l.",
"l.l.l.l.l.l.l., | s.h.h.h.h.h.h.h.h.h.h.h.h.d.3.j ! W l w l.l.l.l.l.l.l.",
"l.l.l.l.l.l.l., | s.h.h.h.h.h.h.h.h.h.h.h.h.d.3.j ! W g w l.l.l.l.l.l.l.",
"l.l.l.l.l.l.l., | s.h.h.h.h.h.h.h.h.h.h.h.h.d.3.j ! W g 9 l.l.l.l.l.l.l.",
"l.l.l.l.l.l.l., | s.h.h.h.h.h.h.h.h.h.h.h.h.s.3.j ! W g 8 l.l.l.l.l.l.l.",
"l.l.l.l.l.l.l., | s.h.h.h.h.h.h.h.h.h.h.u.w.,.4.j ! W g 8 l.l.l.l.l.l.l.",
"l.l.l.l.l.l.l., | s.h.h.h.h.h.h.h.h.h.<.) ` / %.j ! W g 8 l.l.l.l.l.l.l.",
"l.l.l.l.l.l.l., | s.h.h.h.h.h.h.h.h.k.~ ' _ O =.j ! W g 3 l.l.l.l.l.l.l.",
"l.l.l.l.l.l.l.4 } s.h.h.h.h.h.h.h.h.h.;.( -.5.4.j ! W g % l.l.l.l.l.l.l.",
"l.l.l.l.l.l.l.w { s.h.h.h.h.h.h.h.h.h.h.j.s.s.1.h Q W g & l.l.l.l.l.l.l.",
"l.l.l.l.l.l.l.r { s.h.h.h.h.h.h.h.h.h.h.h.h.d.:.p Q W g & l.l.l.l.l.l.l.",
"l.l.l.l.l.l.l.t { s.h.h.h.h.h.h.h.h.h.h.h.h.d.:.p Q W g = l.l.l.l.l.l.l.",
"l.l.l.l.l.l.l.t { s.h.h.h.h.h.h.h.h.h.h.h.h.d.:.p Q W g ; l.l.l.l.l.l.l.",
"l.l.l.l.l.l.l.t { s.h.h.h.h.h.h.h.h.h.h.h.h.d.:.p Q W g ; l.l.l.l.l.l.l.",
"l.l.l.l.l.l.l.t { s.h.h.h.h.h.h.h.h.h.h.h.h.d.:.p Q W g ; l.l.l.l.l.l.l.",
"l.l.l.l.l.l.l.y { s.h.h.h.h.h.h.h.h.h.h.h.h.d.:.p Q W g ; l.l.l.l.l.l.l.",
"l.l.l.l.l.l.l.n ] s.h.h.h.h.h.h.h.h.h.h.h.h.d.#.i T R f - l.l.l.l.l.l.l.",
"l.l.l.l.l.l.l.l.l.F 0.h.g.h.h.h.h.h.h.h.h.h.d.+.# l.l.l.l.l.l.l.l.l.l.l.",
"l.l.l.l.l.l.l.l.l.l.l.S i.s.h.h.h.h.h.h.h.h.d.+.$ l.l.l.l.l.l.l.l.l.l.l.",
"l.l.l.l.l.l.l.l.l.l.l.l.l.A r.h.s.h.h.h.h.h.d.+.$ l.l.l.l.l.l.l.l.l.l.l.",
"l.l.l.l.l.l.l.l.l.l.l.l.l.l.l.6 9.f.s.h.h.h.d.+.$ l.l.l.l.l.l.l.l.l.l.l.",
"l.l.l.l.l.l.l.l.l.l.l.l.l.l.l.l.l.5 *.y.h.g.d.+.$ l.l.l.l.l.l.l.l.l.l.l.",
"l.l.l.l.l.l.l.l.l.l.l.l.l.l.l.l.l.l.l.l.C t.j.O.* l.l.l.l.l.l.l.l.l.l.l.",
"l.l.l.l.l.l.l.l.l.l.l.l.l.l.l.l.l.l.l.l.l.l.Z [ l.l.l.l.l.l.l.l.l.l.l.l."
};