/* XPM */
static char *_6f15f530f3c4b218aeef680bd5d74c7cavyYDLOILvj7B9T[] = {
/* columns rows colors chars-per-pixel */
"30 30 9 1 ",
"  c None",
". c #F9CF2B",
"X c #FACF2B",
"o c #F9CF2C",
"O c #FACF2C",
"+ c #F9D02B",
"@ c #FAD02B",
"# c #F9D02C",
"$ c #FAD02C",
/* pixels */
"            O@@#$X            ",
"          O@O#$$$$$O          ",
"         ##$$$$$$$$$$         ",
"        ##$$$$$$$$$$$@        ",
"       @$$$$$$$$$$$$$$$       ",
"       @$$X $$$$$$  O$$$      ",
"      ##$X   $$$$O   #$X      ",
"      O#$    #$$$    $$$      ",
"      $$$    $$$$    $$$O     ",
"      $$$    #$$#    $$$O     ",
"      $$$#   X$$#X   $$$O     ",
"      $$$$X #$$$#@  @$$$O     ",
"      $$$$$#O$@##$OO$$$$O     ",
"      $$$$$$      X#$$$#O     ",
"      $$$$$$      @$$$##O     ",
"      $$$$$$      #$$$##O     ",
"      $$$$$$#@  X#$$$$$$O     ",
"      $$$#$$$#$$$$$$$$$$O     ",
"      $$$X$$$$$$$$$$#O$$O     ",
"      $$# O$$$X $$$$  $$O     ",
"      $$  O#$O  X$#O  O#O     ",
"      @O   XX    #$    #O     ",
"                              ",
"                              ",
"                              ",
"                              ",
"                              ",
"                              ",
"                              ",
"                              "
};
