/* XPM */
static char *_3cbb31599af4f46dfa2434778bbc864JkvflsKA1tGjxeiu[] = {
/* columns rows colors chars-per-pixel */
"108 108 15 1 ",
"  c None",
". c #FE3934",
"X c #FF3934",
"o c #FE3935",
"O c #FF3935",
"+ c #FE3A34",
"@ c #FF3A34",
"# c #FE3A35",
"$ c #FF3A35",
"% c #FE3B35",
"& c #FF3B35",
"* c #FE3A36",
"= c #FF3A36",
"- c #FE3B36",
"; c #FF3B36",
/* pixels */
"                                                                                                            ",
"                                                                                                            ",
"                                                                                                            ",
"                                                                                                            ",
"                                                                                                            ",
"                                                                                                            ",
"                                                                                                            ",
"                                                                                                            ",
"                                                                                                            ",
"                                                                                                            ",
"                                                                                                            ",
"                                                                                                            ",
"                                                                                                            ",
"                                                                                                            ",
"                                                                                                            ",
"                                                                                                            ",
"                                                                                                            ",
"                                                                                                            ",
"                                                                                                            ",
"                                                                                                            ",
"                                                                                                            ",
"                                                                                                            ",
"                                                                                                            ",
"                                                                                                            ",
"                ;;;$$$$$$$$$$$$$$$$$;$$$$$$$$$$$$$$$$$;;$$$;;$$$-$$$$$$$$$$$$-$$-------$$$$-                ",
"                $$$$$$$$$$$$$$$$$$$$$@$$$$$$$$$$$$$$$$$$$$$$$$$$$$$$$$$$$$$$$$$$$$$$$$$O$$$$                ",
"              $$                                                                            $$              ",
"              ;$                                                                            $$              ",
"            $$                                                                                $$            ",
"            ;$                                                                                $-            ",
"            ;;      $$$;$$$;$$$$$        ;$$$$;          ;$       -$         -$$--$-;$-$$$    $-            ",
"            $$      $$$;$$$;$$$$$        ;$$$$$          $$       $$         $$$$$$$;;$$$$    $$            ",
"            $$    ;$$$$;$$$$$$$$$      $;+$$$$$+;      ;$$$$;   -++$$$     $$;$$$$$$;;;$$$     $            ",
"            $$    $$$$$;$-$$$$$$;      $$$$$$$$$;$     $$$$$;$  $$+-$$     $$$$$$$$$;$;$$$    $-            ",
"            $$    $$$$$              $$$@@$  $$$$$$    $$$$$;$  $$+$$$     $$$$                $            ",
"            ;;    ;$$;              $$$$;;;  $$$;$$$   ;$$;;$$  $$$$$-     -$;$               $-            ",
"            $$    ;$$$               $$$$      $;$$$   ;++;$;$ $$$+$$;     $$$$               $-            ",
"            ;;    ;$$-               $$$$      $;$;$   ;-$;$;$$$$$$+$;     $$;$               $-            ",
"            $$    $$$$               $$$$      $$$$$   $$$$$$$$$$$$$$$     $$$$                $            ",
"            $$    $$$$  $-$-$$$+;    $$$$      $$$$$   $$-$$$$$$$$$$$$     $$$$$$$$$;$;$      $$            ",
"            $$    $$$$   $$$$$$$$    $$$$      $$$$$   $$$$$;$$$$$$$$$     $$$$$$$$$$$$$      $$            ",
"            $$    $$$$     $$$$$$    $$$$      $$$$$   $$$$   $;  $$$$     $$$$$$$$$$$$$      $$            ",
"            ;$    ;$$;     $$$$$;    $$$$      $;$$$   ;$$$   $$  $$$;     $$;$$-$$$$$-$      $$            ",
"            ;$    ;$$;       $$$$    ;$$$;$$$$$$;$$$   ;$$$       $$$$     ;$$$               $$            ",
"            $$    $$$$       $$$$    $$$$$$$$$$$$$$$   $$$$       $$$$     $$$$               $$            ",
"            $$    $$$$       $$$$    $$$$$$  $$@$$$$   $$$$       $$$$     $$$$                $            ",
"            $$    ;$$$       $$$;    $$$;;;  $$$;+$$   ;$$;       $$$$     $$$$               $-            ",
"            $$    $$$$$$$$$$$$$$$    $$$$      $$$$$   $$$$       $$$$     $$$$$$$$$$$$$$$    $$            ",
"            ;;    -$$$$---$-$$-$;    $$$;      $;$$$   ;---       -$$-     ;$;$$--$$;$-$-$    $-            ",
"            $$    $$$$$$$$$$$$$$$    $$$;      $-+$$   ;$$$       $$$$     $$$$$$$$$;;$$$$    $$            ",
"            ;;      $$$$$$$$$$$      $$$;      $;+$$   $$$$       $$$$       $$$$$$$;;$$$$    $-            ",
"            $$      $$$-$-$-$$$      $$$$       -++$   $--$       -$$$       -$$--$$$$-$$$     $            ",
"            $@                                                                                $$            ",
"            ;;                                                                                $;            ",
"            $;                                                                                $;            ",
"            $$                                                                                $$            ",
"            ;$      $$$$$$$$$$$      $$$$       -$$$     -$$-$$$-$$$$-       -$$--$$-$-        $            ",
"            $$      $$$;$$$$$$$      $$$$      $$$$$     $$$-$$$$$$$$$       $$$$$$$$$$$      $$            ",
"            $$    $$$$$$$$$$$$$$$    $$$$      $$$$$   $$$$$$$$$$$$$$$     $$$$$$$$O$$$$$$     $            ",
"            ;;    ;$$$$$--$$$$$$;    $$$;      $;$$$   ;--$$-$-$-$$;$$     -$-$$-------$;$    $;            ",
"            $$    $$$$$$$$$$$$$$$    $$$;      $;$$$   ;$$$$$$$$$$$$$$     $$$$$$$$$$$$$$$    $$            ",
"            $;    $$$$       $$$;    ;$$$      $;$;$   ;$$$                $$$$       -$;$    $;            ",
"            $$    $$$$       $$$$    $$$$      $$$$$   $$$$                $$$$       $$$$     $            ",
"            ;;    $$$$       $$$$    $$$$      $$$$$   $$$$                $$$$       $$$$    $$            ",
"            $$    ;$$;       ;$$;    $$$;      $;$$$   ;---                ;$;$       ;$$$     $            ",
"            $$    ;$@;       $$$;    $$$;      $;$$$   ;$$$$-$$$$$$;       $$$$       ;$$$    $$            ",
"            ;;    ;$$;       +$$;    $$$;      $;$$$   ;$$;$-$$$$$$$       $$$$       $$$$    $;            ",
"            ;;    ;$$;       +$$$    ;$$;      $;$$$   ;$$$$$$$$$$$$       $$$$$$$$$;;$$$$    $;            ",
"            $$    $$$$       $$$$    $$$$      $$$$$   $$$$$;$$$$$$;       $$$$$$$$$$$-$$$    $$            ",
"            $$    $$$$       $$$$    $$$$      $$$$$   $$$$$               $$$$$$$$$$$$$       $            ",
"            $$    ;$$;       ;$$;    $$$;      $;$$$   ;$$;                ;$;$$$$$--;;$      $$            ",
"            $$    ;$$;       $$$;    $$$;      $;$$$   ;$$;                $$$$$ $$$$$        $$            ",
"            ;;    ;$$;       $$$;   $$$$$$$  $$$;+$$   ;$$;                $$$$  ;$$;         $;            ",
"            $$    ;$$;$      $$$$    $$$$$$  $$$;$$    ;$$$$               $$$$   $$;$        $$            ",
"            ;;    ;$$$$$$$$;$$$$;      $$;$$$$$$;$     ;$$;$;$$$$$$$$$     ;$;$    $;;$$      $$            ",
"            $$    ;$$$$$$$$$$$$$;      $;$$$$$$$;      ;$$$$$$$$$$$$$$     $$$$    $;$$$       $            ",
"            $$      $$$;$$$$$$$          $$$$$$          $$$$$$$$$$$$$     $$$$       $$$$    $$            ",
"            $$      $$$;$$$;$$;          ;$$$$-          ;;$;$$$$$$$$;     $$$$       ;$$$    $$            ",
"            $$                                                                                $$            ",
"            $$                                                                                $;            ",
"              $$                                                                            $$              ",
"              $$                                                                            $-              ",
"                $$$  $ $$$ $ $$$  $ $ $  $$$ $ $$$ $  $$  $ $ $  $$$ $ $$$ $  $$  $ $$$ $ $$                ",
"                $;;$$;$;$$$;$$-$$$$$-$-$$-$$$-$$$---$$--$$$$-$-$$;$$$$$;$;$$$$$$-$$$-$-$$$$-                ",
"                                                                                    -                       ",
"                                                                                                            ",
"                                                                                                            ",
"                                                                                                            ",
"                                                                                                            ",
"                                                                                                            ",
"                                                                                                            ",
"                                                                                                            ",
"                                                                                                            ",
"                                                                                                            ",
"                                                                                                            ",
"                                                                                                            ",
"                                                                                                            ",
"                                                                                                            ",
"                                                                                                            ",
"                                                                                                            ",
"                                                                                                            ",
"                                                                                                            ",
"                                                                                                            ",
"                                                                                                            ",
"                                                                                                            ",
"                                                                                                            ",
"                                                                                                            ",
"                                                                                                            "
};
