/* XPM */
static char *result[] = {
/* columns rows colors chars-per-pixel */
"36 36 211 2 ",
"   c #760000",
".  c #7D0000",
"X  c #671716",
"o  c #702A15",
"O  c #4D3B39",
"+  c #5A3432",
"@  c #513E3C",
"#  c #583922",
"$  c #6D2E2D",
"%  c #60511D",
"&  c #7A6518",
"*  c #534721",
"=  c #5C4E2A",
"-  c #5A4B27",
";  c #534438",
":  c #5D5334",
">  c #5E502F",
",  c #65552E",
"<  c #604D33",
"1  c #695D3D",
"2  c #665738",
"3  c #7A5E3C",
"4  c #604E29",
"5  c #77673F",
"6  c #554341",
"7  c #5A4543",
"8  c #5C4947",
"9  c #574D48",
"0  c #5C5454",
"q  c #484849",
"w  c #634D4A",
"e  c #674846",
"r  c #794A48",
"t  c #6A534F",
"y  c #66504E",
"u  c #785848",
"i  c #6D5552",
"p  c #675B54",
"a  c #725553",
"s  c #725A57",
"d  c #745C59",
"f  c #7F5A52",
"g  c #5C6453",
"h  c #7A625E",
"j  c #77605C",
"k  c #756745",
"l  c #455E75",
"z  c #525E6D",
"x  c #50686D",
"c  c #696566",
"v  c #7D6561",
"b  c #776B6A",
"n  c #6E6C70",
"m  c #757373",
"M  c #767678",
"N  c #7A7A7C",
"B  c #797473",
"V  c #8A0303",
"C  c #830808",
"Z  c #9B0D0D",
"A  c #A30504",
"S  c #AC0E0E",
"D  c #A60707",
"F  c #B50505",
"G  c #92201F",
"H  c #873432",
"J  c #903130",
"K  c #A32D2B",
"L  c #C80D0E",
"P  c #D51515",
"I  c #C81213",
"U  c #E01818",
"Y  c #F01F20",
"T  c #C83837",
"R  c #D22020",
"E  c #EC2929",
"W  c #F42122",
"Q  c #FF2627",
"!  c #F02F2F",
"~  c #F13030",
"^  c #885216",
"/  c #8B7011",
"(  c #8C7626",
")  c #85693B",
"_  c #824543",
"`  c #874946",
"'  c #9C4B48",
"]  c #84584A",
"[  c #835956",
"{  c #915B57",
"}  c #AF4F4D",
"|  c #856548",
" . c #946C4B",
".. c #86744B",
"X. c #8A6658",
"o. c #9C7456",
"O. c #947250",
"+. c #91605D",
"@. c #A57C5D",
"#. c #AA775A",
"$. c #B67E5B",
"%. c #836662",
"&. c #826A65",
"*. c #856D69",
"=. c #8A6A66",
"-. c #986965",
";. c #8B726D",
":. c #877765",
">. c #9E7969",
",. c #8E7671",
"<. c #937B75",
"1. c #967F79",
"2. c #987D74",
"3. c #A37D67",
"4. c #D34342",
"5. c #799563",
"6. c #9E8418",
"7. c #A88A0C",
"8. c #988534",
"9. c #B09F3B",
"0. c #B0AE3B",
"q. c #ABA02C",
"w. c #C79F05",
"e. c #D0AE0D",
"r. c #CEAD33",
"t. c #E8C306",
"y. c #E2D535",
"u. c #E1CC34",
"i. c #9C915C",
"p. c #A58158",
"a. c #B6825E",
"s. c #BD8642",
"d. c #82817D",
"f. c #9A827C",
"g. c #92827E",
"h. c #889F6B",
"j. c #BE8763",
"k. c #BF946C",
"l. c #A58777",
"z. c #B5917C",
"x. c #C5904E",
"c. c #C58B6A",
"v. c #C89973",
"b. c #D79874",
"n. c #C0906A",
"m. c #CEA57C",
"M. c #D6A86B",
"N. c #37738E",
"B. c #4D6D85",
"V. c #4C7B9A",
"C. c #7E7E80",
"Z. c #3982B4",
"A. c #3693CC",
"S. c #4E9ED0",
"D. c #54A4D5",
"F. c #7AB1D5",
"G. c #848487",
"H. c #9E8681",
"J. c #9F8A81",
"K. c #8E8E91",
"L. c #929294",
"P. c #A28A84",
"I. c #A68F89",
"U. c #A8938C",
"Y. c #AE9790",
"T. c #B29B94",
"R. c #B69F98",
"E. c #B09080",
"W. c #9F9FA2",
"Q. c #A5A5A8",
"!. c #B4AFAB",
"~. c #BCB5A6",
"^. c #B7B7BB",
"/. c #BBBBBF",
"(. c #AFAFB3",
"). c #C69E83",
"_. c #CDA586",
"`. c #DCAD84",
"'. c #D5AD82",
"]. c #D5B998",
"[. c #D4B893",
"{. c #D6B18E",
"}. c #E7AC85",
"|. c #E8BB92",
" X c #E1B389",
".X c #DEC19A",
"XX c #E9C79B",
"oX c #F3CA9C",
"OX c #F9C79B",
"+X c #F7CDA0",
"@X c #FAD6A6",
"#X c #F5DBAE",
"$X c #F6D7A8",
"%X c #EED0A1",
"&X c #FFE1AF",
"*X c #F3E3A1",
"=X c #FEE3B6",
"-X c #89B0CA",
";X c #BFBFC0",
":X c #CCCCCD",
">X c #C4C4C7",
",X c #CDCDD1",
"<X c #D5D5D9",
"1X c #D7D7DA",
"2X c PapayaWhip",
"3X c #DFDFE2",
"4X c #E8E7E8",
"5X c #F1F1F2",
"6X c #FDFDFD",
"7X c #FAF6F0",
"8X c None",
/* pixels */
"8X8X8X8X8X8X8X8X8X8X8X8X8X8X8X8X8X8X8X8X8X8X8X8X8X8X8X8X8X8X8X8X8X8X8X8X",
"8X8X8X8X8X8X8X8X8X8X8X8XO O O O O 8X8X8X8XO O O O O O 8X8X8X8X8X8X8X8X8X",
"8X8X8X8X8X8XO O O O O @ O 8 d v i 7 O O O 8 d v 6 O 8X8X8X8X8X8X8X8X8X8X",
"8X8X8X8X8X8XO @ w d v b 1.d w h *.v d i v &.d 8 O O O O O O 8X8X8X8X8X8X",
"8X8X8X8X8X8XO @ 6 s v v f.1.;.&.v 1.f.*.,.&.d y ,.v i w @ O 8X8X8X8X8X8X",
"8X8X8X8X8X7 y s s v v &.,.f.f.,.&.<.P.P.<.*.;.f.H.,.d 8 O O 8X8X8X8X8X8X",
"8X8X8X8X8X8 y s v ;.,.<.H.1.,.,.,.,.f.P.<.,.1.P.<.*.d i i w 7 8X8X8X8X8X",
"8X8X8X8X8X6 8 i j ;.<.H.I.<.;.,.,.,.,.<.H.<.,.,.,.g.g.,.*.v s 7 8X8X8X8X",
"8X8X8X8X6 i &.;.*.=.<.I.;.%.=.1.,.;.,.H.R.l.=.X.;.P.I.1.v v s w @ O 8X8X",
"8X8X; 7 s v =.{ r a v *.r =.H.T.<.h ;.R.T.1.` C +.,.H.T.,.i 6 O O O 8X8X",
"8XO 7 i *.e o F V ` %._ S ' H.Y.<.[ =.Y.<.f J S r %.f.U.d v d @ 8X8X8X8X",
"8X8X8XO O X S Y F H H F Q } ,.,.<.K K <.,.K L W V ` ,.*.6 w i i @ 8X8X8X",
"8X8X8X@ i o V D .   V F W } v ;.s T 4.,.j T Q W F ' *.t - ; 7 i @ 8X8X8X",
"8XO 7 a a G L E r r a -.] r s s i ).).%..X@XOXOX}.>.>._., 8X8XO 8X8X8X8X",
"8XO 7 a G D L E [ %.;.,.s i s s *.].$X].k 5 5 ..XX|. X`., 8X8X8X8X8X8X8X",
"8XO @ + D P Y ! +.;.,.1.{._.l.;.,.].&X#X~.p p ~.&X@X+X`., 8X8X8X8X8X8X8X",
"8XO 6 + D U Q ~ -.,.,.l.$X'.v.).<.].&X=X4Xb 0 !.#X&X@Xm., 8X8X8X8X8X8X8X",
"8X8XO + Z U Q ~ -.,.;.;.|.k.k.|.1.].&X=X7Xo.# | %X&XOXv., 8X8X8X8X8X8X8X",
"8X8X8X+ A P Q ~ -.;.%.d p.l.v.XX1.].&X=X2Xp.o ^ %X@X X$., 8X8X8X8X8X8X8X",
"8X8X8XX D U W R r h v i < #.b.}.z.XX&X&X@XM.9.x.oX|.n.3 4 8X8X8X8X8X8X8X",
"8X8X8X. A P U D r i y w i #.c.b.}.oX$X@X@XoXoXoX`.c. .* 8X8X8X8X8X8X8X8X",
"8X8X8X. A P U D + e w 8 w X.3.c.j.v.m.m.m.n.a.a. ., 8X8X8X8X8X8X8X8X8X8X",
"8X8X8X    I P A 8X@ p N 0 b G.C.k 2 1 1 2 1 2 : - 8X8X8X8X8X8X8X8X8X8X8X",
"8X8X8X8X        8XC.K.^.^.,X4X6X6X6X6X6X3X1X,X!.d.8X8X8X8X8X8X8X8X8X8X8X",
"8X8X8X8X8X8X8X8XN W.^.^.^.:X,X;X;X,X4X6X6X6X*Xe.w.& * 8X8X8X8X8X8X8X8X8X",
"8X8X8X8X8X8X8XN N L.Q.N 5.L.L.N 0 V.F.4X6X-Xh.t.& 8X8X8X8X8X8X8X8X8X8X8X",
"8X8X8X8X8X8XM C.Q.>X(.N g.U.T.P.: N.A.S.D.Z.5.t.: 8X8X8X8X8X8X8X8X8X8X8X",
"8X8X8X8X8XM N C.>X4X>XB =.3.3.+.= g n n b c B i.9 8X8X8X8X8X8X8X8X8X8X8X",
"8X8X8X8XM M G.Q.,X5X:XB X.o.@. .- x V.V.B.l z c q 8X8X8X8X8X8X8X8X8X8X8X",
"8X8X8X8XM M K.;X<X5X:Xm f O.p.o.= x V.V.B.l g ( : 8X8X8X8X8X8X8X8X8X8X8X",
"8X8X8X8XM M K.;X<X5X:Xm 2 u | ) 6.q.0.0.9.8.( / % 8X8X8X8X8X8X8X8X8X8X8X",
"8X8X8X8XM M K.;X<X5X:Xm > * , k r.u.y.u.w.7./ * 8X8X8X8X8X8X8X8X8X8X8X8X",
"8X8X8X8XM M G.(.:X4X:XM 8X* u ,.2.l.z.3.> * 8X8X8X8X8X8X8X8X8X8X8X8X8X8X",
"8X8X8X8X8X8XM C.Q.,X;XM 8X* > u ] o.@.| - 8X8X8X8X8X8X8X8X8X8X8X8X8X8X8X",
"8X8X8X8X8X8X8XM M M M 8X8X* = u ] O.o.O.= 8X8X8X8X8X8X8X8X8X8X8X8X8X8X8X",
"8X8X8X8X8X8X8X8X8X8X8X8X8X8X8X* * * * * 8X8X8X8X8X8X8X8X8X8X8X8X8X8X8X8X"
};
