/* XPM */
static char *result[] = {
/* columns rows colors chars-per-pixel */
"36 36 156 2 ",
"   c #333335",
".  c #760303",
"X  c #7B0202",
"o  c #760C0B",
"O  c #770C0B",
"+  c #75100F",
"@  c #751615",
"#  c #781817",
"$  c #751B1B",
"%  c #7B1C1C",
"&  c #4D3B39",
"*  c #513E3C",
"=  c #752F2E",
"-  c #752524",
";  c #73302F",
":  c #733534",
">  c #733B3A",
",  c #4F4423",
"<  c #534721",
"1  c #5A4A26",
"2  c #53403E",
"3  c #5E5031",
"4  c #76413F",
"5  c #7B573E",
"6  c #3F3F40",
"7  c #444444",
"8  c #4D4645",
"9  c #554240",
"0  c #5B4644",
"q  c #5E4946",
"w  c #584D4C",
"e  c #535353",
"r  c #585859",
"t  c #634C4A",
"y  c #604947",
"u  c #724443",
"i  c #734C4A",
"p  c #65504D",
"a  c #69514F",
"s  c #75514F",
"d  c #655453",
"f  c #6D5553",
"g  c #6F5956",
"h  c #665858",
"j  c #665857",
"k  c #715654",
"l  c #725956",
"z  c #745C59",
"x  c #785E5B",
"c  c #77605D",
"v  c #7B625F",
"b  c #7C695C",
"n  c #626263",
"m  c #6A6162",
"M  c #676768",
"N  c #7D6461",
"B  c #7E6D66",
"V  c #72716E",
"C  c #757577",
"Z  c #767678",
"A  c #78787A",
"S  c #8E0101",
"D  c #890808",
"F  c #950202",
"G  c #9C0303",
"H  c #970B0A",
"J  c #8F1D1C",
"K  c #951515",
"L  c #9D1919",
"P  c #A50101",
"I  c #A60B0B",
"U  c #BC0808",
"Y  c #A11211",
"T  c #BD1111",
"R  c #96201F",
"E  c #892F2E",
"W  c #962020",
"Q  c #953C3B",
"!  c #9F3F3E",
"~  c #A12424",
"^  c #CC0E0F",
"/  c #C00909",
"(  c #CB1111",
")  c #D11213",
"_  c #DA1516",
"`  c #E01A1B",
"'  c #C53838",
"]  c #EE2122",
"[  c #FF2627",
"{  c #FE2B2C",
"}  c #864543",
"|  c #9E4343",
" . c #974E4B",
".. c #845B45",
"X. c #A64443",
"o. c #AB4A49",
"O. c #B35653",
"+. c #806764",
"@. c #836A66",
"#. c #8C6965",
"$. c #856D69",
"%. c #886F6B",
"&. c #8B726E",
"*. c #86706C",
"=. c #8F7672",
"-. c #897B79",
";. c #927A75",
":. c #967E79",
">. c #E45C5F",
",. c #E36264",
"<. c #F0696B",
"1. c #9B837D",
"2. c #7E7E80",
"3. c #828284",
"4. c #8F8C8D",
"5. c #9D8681",
"6. c #908887",
"7. c #8E8E91",
"8. c #969393",
"9. c #969699",
"0. c #A38C86",
"q. c #A68F89",
"w. c #AA938D",
"e. c #A79089",
"r. c #AE9690",
"t. c #B39C95",
"y. c #9E9EA1",
"u. c #A4A4A8",
"i. c #AAAAAC",
"p. c #AFAFB2",
"a. c #B0B0B4",
"s. c #B6B6BA",
"d. c #BABABE",
"f. c #D58386",
"g. c #E8979A",
"h. c #E89194",
"j. c #FF9D9D",
"k. c #FEADAD",
"l. c #BEBEC2",
"z. c #C0C0C4",
"x. c #C4C4C8",
"c. c #CCCCD0",
"v. c #D1D1D5",
"b. c #D5D5D9",
"n. c #DADADD",
"m. c #D9D4D8",
"M. c #FFD2D2",
"N. c #DDDDE0",
"B. c #E7E7EA",
"V. c #EAEAEB",
"C. c #FFEEEE",
"Z. c #F1E0E1",
"A. c #EEEEF0",
"S. c #F2F2F3",
"D. c #FEFEFE",
"F. c None",
/* pixels */
"F.F.F.F.F.F.F.F.F.F.F.F.F.F.F.F.F.F.F.F.F.F.F.F.F.F.F.F.F.F.F.F.F.F.F.F.",
"F.F.F.F.F.F.F.F.F.F.F.F.& & & & & F.F.F.F.& & & & & & F.F.F.F.F.F.F.F.F.",
"F.F.F.F.F.F.& & & & & & & q l *.5.z & & & t z v 2 & F.F.F.F.F.F.F.F.F.F.",
"F.F.F.F.F.F.& & & q g N N p t N 1.1.$.f ;.&.@.z 2 & & & & & F.F.F.F.F.F.",
"F.F.F.F.& & & & q c *.;.0.&.v @.c ;.:.$.1.*.k 0 t g g q * & F.F.F.F.F.F.",
"F.F.F.* q f z z N z z @.5.0.1.=.@.*.=.=.=.;.;.*.@.N z 0 & & F.F.F.F.F.F.",
"F.F.F.2 q f c @.=.v z +.=.1.1.=.=.*.+.$.=.1.0.0.0.&.z f g y 0 F.F.F.F.F.",
"F.F.F.F.0 q g N @.&.=.=.=.1.1.=.=.@.v v $.&.=.;.0.1.=.=.$.g y 0 F.F.F.F.",
"F.F.2 0 z $.&.$.$.&.=.=.:.r.w.=.=.:.:.=.x =.:.=.=.=.;.:.N t 0 t * & F.F.",
"F.2 t x @.$.$.$.e.:.&.:.t.t.0.=.=.e.w.:.&.0.0.:.=.=.1.w.1.$.a & & & F.F.",
"& y z @.0 t &.w.;.+.v ;.r.1.=.&.=.w.t.w.x @.5.t.;.=.=.=.r.1.v * F.F.F.F.",
"F.& & * f k v ;.=.x +.=.=.&.$.z &.q.q.&.z $.5.r.v @.@.z &.=.@.f 2 F.F.F.",
"F.F.F.9 $.v v &.z k x =.=.+.g f k $.=.&.z $.=.=.l $.=.&.z $.=.$.2 F.F.F.",
"F.& p $.z l l i @ : +.&.x - D I I  .=.#.@ > N &.l $.=.#.# > z z $.p & F.",
"F.& q l 0 t > @ X : l k # H F D ` O.$.k o o = k $ 4 +.#.O : t 2 0 2 & F.",
"F.& * 2 & t i : O o ; i H ( U D ] o.} K X S H @ X + = x u i t * F.& & F.",
"F.& & F.& t k i : : = % I / U G I L K S G P P F X - u k g k y & F.F.F.F.",
"F.F.F.F.& t g f q f u = E H U ) P J J G ^ U H E = u a y f k t & F.F.F.F.",
"F.F.F.F.& y a y & t k k k J ^ [ _ Q Q _ [ ^ W g k k t * y a t & F.F.F.F.",
"F.F.F.F.* 0 0 7 & t k l l W ^ [ [ X.X.[ [ ^ W k k k t & & 0 0 & F.F.F.F.",
"F.F.F.F.F.& 8 e w t f f t ~ _ [ [ ! ! [ [ _ ~ a k f w w e 8 & F.F.F.F.F.",
"F.F.F.F.F.e M 3.A m d p d ' [ [ [ | | [ [ [ ' d a d m A 3.M e F.F.F.F.F.",
"F.F.F.F.7 Z y.p.3.u.8.h p.>.[ [ [ f.f.[ [ [ >.i.d 8.u.3.i.y.Z 7 F.F.F.F.",
"F.F.F.F.6 n C 2.p.c.c.s.s.>.[ [ [ g.g.[ [ { ,.s.s.c.c.p.2.Z n 7 F.F.F.F.",
"F.F.F.F.  6 r 2.p.c.c.l.b.<.[ [ { k.k.[ [ h.m.b.l.c.c.p.2.r 6   F.F.F.F.",
"F.F.F.F.< b -.2.p.c.c.s.b.Z.j.[ [ k.k.[ [ k.V.v.l.c.c.p.2.-.b < F.F.F.F.",
"F.F.F.1 5 B 4.p.c.V.V.b.S.D.C.M.M.C.C.M.M.C.D.S.b.B.B.c.p.4.B 5 1 F.F.F.",
"F.F.F.1 ..B 7.l.b.S.D.S.D.D.D.D.D.D.D.D.D.D.D.D.S.D.S.b.l.7.B ..1 F.F.F.",
"F.F.F.1 ..B 7.l.V.D.S.V.D.D.D.D.D.D.D.D.D.D.D.D.V.S.D.V.l.7.B ..1 F.F.F.",
"F.F.F.3 b 6.p.c.S.S.B.c.D.D.D.D.D.D.D.D.D.D.D.D.c.N.S.S.c.i.6.N 3 F.F.F.",
"F.F.F.F.Z y.x.N.D.B.c.z.B.S.D.D.D.D.D.D.D.D.S.B.l.c.B.D.N.x.y.Z F.F.F.F.",
"F.F.F.F.Z y.x.N.A.n.x.s.b.S.D.D.D.D.D.D.D.D.S.b.l.x.N.A.N.x.y.Z F.F.F.F.",
"F.F.F.F.Z 9.p.l.c.l.p.i.v.V.S.D.D.D.D.D.D.D.V.v.i.a.z.c.l.i.9.Z F.F.F.F.",
"F.F.F.F.F.F.Z 2.u.i.9.3.l.c.N.S.A.S.S.S.A.n.c.d.3.9.i.u.3.Z F.F.F.F.F.F.",
"F.F.F.F.F.F.F.F.Z Z Z Z V 8.i.i.s.s.s.s.i.i.8.V C Z C Z F.F.F.F.F.F.F.F.",
"F.F.F.F.F.F.F.F.F.F.F.F.< < < < F.F.F.F.< < < < F.F.F.F.F.F.F.F.F.F.F.F."
};
