/* XPM */
static char *result[] = {
/* columns rows colors chars-per-pixel */
"36 36 192 2 ",
"   c #3C3B3B",
".  c #353434",
"X  c #7E1311",
"o  c #433C3D",
"O  c #4D3B39",
"+  c #4B3C33",
"@  c #513E3C",
"#  c #7C2A28",
"$  c #7B4000",
"%  c #78651F",
"&  c #524623",
"*  c #5A4A26",
"=  c #5C4C2A",
"-  c #54462A",
";  c #49433A",
":  c #54413E",
">  c #594A39",
",  c #5E5637",
"<  c #624228",
"1  c #63542E",
"2  c #674F30",
"3  c #685332",
"4  c #77573B",
"5  c #7A6A32",
"6  c #726934",
"7  c #3F3F41",
"8  c #293F53",
"9  c #394856",
"0  c #345675",
"q  c #434242",
"w  c #4C4C4C",
"e  c #5B4644",
"r  c #5E4947",
"t  c #564341",
"y  c #444B50",
"u  c #565759",
"i  c #595657",
"p  c #624C4A",
"a  c #604A44",
"s  c #66514E",
"d  c #69524C",
"f  c #665A46",
"g  c #7A5646",
"h  c #6E5653",
"j  c #685957",
"k  c #735955",
"l  c #745C59",
"z  c #745955",
"x  c #794F4C",
"c  c #6E6547",
"v  c #766C4E",
"b  c #73674C",
"n  c #686356",
"m  c #7B625E",
"M  c #76635E",
"N  c #465B6C",
"B  c #5E5E60",
"V  c #6A6A6B",
"C  c #7D6561",
"Z  c #766C6B",
"A  c #6E757B",
"S  c #767678",
"D  c #777476",
"F  c #797466",
"G  c #941010",
"H  c #AF1413",
"J  c #893C39",
"K  c #832E2B",
"L  c #C90D0E",
"P  c #E1201E",
"I  c #FD2B2B",
"U  c #8B5319",
"Y  c #937918",
"T  c #835946",
"R  c #8C4F4C",
"E  c #8E6C4C",
"W  c #886548",
"Q  c #976D4D",
"!  c #856559",
"~  c #966953",
"^  c #86765C",
"/  c #967153",
"(  c #997257",
")  c #A77748",
"_  c #A0765A",
"`  c #A77958",
"'  c #826662",
"]  c #826A65",
"[  c #856D69",
"{  c #8B6965",
"}  c #936A66",
"|  c #8C7163",
" . c #8B726E",
".. c #817C6F",
"X. c #8E7671",
"o. c #8A7B78",
"O. c #927A75",
"+. c #977F7A",
"@. c #9E7B6A",
"#. c #AD7964",
"$. c #A94B48",
"%. c #978028",
"&. c #9E9D27",
"*. c #AE9828",
"=. c #B8A22E",
"-. c #A8A731",
";. c #BCAE32",
":. c #B9BA34",
">. c #D0A903",
",. c #DEBE27",
"<. c #C7B038",
"1. c #B6845F",
"2. c #AEBE4C",
"3. c #B5B345",
"4. c #8A837E",
"5. c #9A837D",
"6. c #948F7E",
"7. c #8E907B",
"8. c #97917F",
"9. c #A48A62",
"0. c #B88864",
"q. c #A98875",
"w. c #A58777",
"e. c #BB9379",
"r. c #B5926B",
"t. c #C38A4B",
"y. c #DAB840",
"u. c #C19B72",
"i. c #CA9C75",
"p. c #CA896B",
"a. c #D7A37A",
"s. c #DCB074",
"d. c #B0D149",
"f. c #DAC040",
"g. c #1D5989",
"h. c #265882",
"j. c #2D6F9E",
"k. c #316591",
"l. c #34719E",
"z. c #476A84",
"x. c #477A9D",
"c. c #537991",
"v. c #457FA5",
"b. c #3985B7",
"n. c #628384",
"m. c #72838F",
"M. c #288DCB",
"N. c #308FC4",
"B. c #3191CC",
"V. c #878789",
"C. c #878789",
"Z. c #9E8681",
"A. c #9F8A83",
"S. c #8F8F92",
"D. c #949598",
"F. c #A58D87",
"G. c #A68F89",
"H. c #AA928C",
"J. c #A99B94",
"K. c #B19A93",
"L. c #B0AB9C",
"P. c #A3A098",
"I. c #A5A4A3",
"U. c #B3B3B5",
"Y. c #DCBD9F",
"T. c #D1AA89",
"R. c #E3AC85",
"E. c #E7B892",
"W. c #C5BBAA",
"Q. c #F5CA9D",
"!. c #EAC89D",
"~. c #D3C9B7",
"^. c #F9D4A4",
"/. c #FCDBAA",
"(. c #EDCFB4",
"). c #EDCFB0",
"_. c #FFE1AF",
"`. c #BDBDC1",
"'. c #B6C7D6",
"]. c #B2D6EC",
"[. c #CDCDCE",
"{. c #C5C4C5",
"}. c #C8CFD7",
"|. c #DDDCDD",
" X c #D3D1D2",
".X c #E4E0DD",
"XX c #F3F2DE",
"oX c #EDEDEC",
"OX c #EEEFF1",
"+X c #FDFEFE",
"@X c #F3F4F5",
"#X c None",
/* pixels */
"#X#X#X#X#X#X#X#X#XO O O O O O #X#X#X#XO O O O O #X#X#X#X#X#X#X#X#X#X#X#X",
"#X#X#X#X#X#X#X#X#X#X#X: ] l p O O O M G. .M r O O O O O O O O #X#X#X#X#X",
"#X#X#X#X#X#XO O O O O : k C [ C h X.Z.O.m r s [ [ k r O O O #X#X#X#X#X#X",
"#X#X#X#X#X#XO @ p l l p e h X.G. .O.X.m [ C X.G.O. .M p @ O O O #X#X#X#X",
"#X#X#X#X#X#XO O t h C ] M m  .F.G.5. .[ X.Z.A.5.C h C +.C M h p @ #X#X#X",
"#X#X#X#X#Xe s l l m X.G.F.5.X.O.Z.O.O.X.X.5.5.X.[ [ O.Z.] l s e @ #X#X#X",
"#X#X#X@ e r h ]  .X.5.F.F.5.O. .X.5.5.X.X.Z.5.X.X.Z.+.] ' l s e @ #X#X#X",
"#X#XO O p r s ' 5.5. .X. .5.5.O.Z.K.G. .R } Z.Z.O.X.[ C ]  .[ M r t #X#X",
"#X#XO O O d [ Z.H.5.X.X.5.G.Z. .K.K.+.! G X ! H.O.! } +.m ] ] C M p t #X",
"#X#X#X#X: m 5.H.X.X. .X.H.5.' x F.+.{ J H G K X.X.K J H.5.C s e C k a O ",
"#X#X#X@ h ] X. .l [ ' x  . .R X }  .$.H I L G l X.# # X.H. .k h @ O O #X",
"#X#X#Xe  .X.] l X.X.R X ! m J H } ' $.I I I P H } K # k X.m m [ e #X#X#X",
"#XO s  .l h m  .X.C @.R.m T./.!.' T././././.Q.R.! H.p.z  .' h l  .s O #X",
"#XO @ : - f m  .l e.r.3 & 1 9./.Q./._._./.9.3 3 * r.R.0.l #.~ t h e O #X",
"#XO O #X& a !  .l e.Y.I.+ 4.~._._._._._._.~.o.+ I.Y.R.p.! #.` + : @ O #X",
"#X#X#X#X+ = d m ! i.(. Xo D W._._._._._._.W.D O  X(.a.` z 4 4 + #XO O #X",
"#X#X#X#XO 2 d z ~ a.(..X< < 9._._._._._._.9.< < .X(.i.Q k f > @ #X#X#X#X",
"#X#X#X#XO p d a 4 0.E.).U U ) _._._._._._.) $ U ).E.0.4 r d p O #X#X#X#X",
"#X#X#X#X#Xe s i f W 1.a.*.t.s._._._._._._.s.t.t.a.0.W f j p e #X#X#X#X#X",
"#X#X#X#X#Xo i S S.D ~ #.i.R.Q.^.^.^.^.).^.Q.E.u.` / ..S.S i O #X#X#X#X#X",
"#X#X#X#X#Xu V S.U.`.P.b W Q 1.u.u.u.e.u.u.1.) W b J.`.U.S.V u #X#X#X#X#X",
"#X#X#X#Xq A I.`.U.`.{.U.^ v v c f , , c c v v ^ U.{.`.U.`.I.S q #X#X#X#X",
"#X#X#X#X; B S.{.D.m.D.}.@X+XOX|.W.8.8.W.|.OX+X@X}.D.C.D.W.S.B q #X#X#X#X",
"#X#X#X#X. 7 w i i   9 k.'.oX+XXX,.>.>.,.XX+XoX'.k.9 7 u u w 9 . #X#X#X#X",
"#X#X#X#X& ^ o.V w   8 g.j.'.].B.N.d.d.N.B.].'.j.g.8   w V o.m & #X#X#X#X",
"#X#X#X* g ( q.5.q . o j h.j.b.M.M.2.2.M.M.b.l.h.i 7 . 7 Z.q.( 4 * #X#X#X",
"#X#X#X1 / ` _ ! o   9 0 u j C Z m.7.7.m.D C l u 0 9 7   ! _ 9.Q = #X#X#X",
"#X#X#X= W Q T = . 7 y 0 z.x.v.v.A 3.3.A x.v.x.z.N y   . < T ~ W = #X#X#X",
"#X#X#X#X2 2 ^ L., % 5 B N z.c.n.:.-.-.:.n.c.z.N u 5 % > L.| 1 1 #X#X#X#X",
"#X#X#X#Xj 6.~.oXF 5 Y Y =.=.;.:.&.c 6 &.:.;.=.*.%.Y 5 F oX~.6.n #X#X#X#X",
"#X#X#X#XS [.+XOXC.n 5 Y <.,.f.:., ; ; , <.f.<.<.%.5 n C.oX+X[.S #X#X#X#X",
"#X#X#X#XS U.|.oXC.S f = } F.q.F = & & = | q.q.| * c S C.oX.XU.S #X#X#X#X",
"#X#X#X#X#X#XI.[.C.#X#X= W _ ( g * #X#X* g / ( W = #X#XV.[.I.#X#X#X#X#X#X",
"#X#X#X#X#X#X#XS #X#X#X= E / E 4 * #X#X* 4 E Q E 1 #X#X#XS #X#X#X#X#X#X#X",
"#X#X#X#X#X#X#X#X#X#X#X#X& & & & #X#X#X#X& - - & #X#X#X#X#X#X#X#X#X#X#X#X",
"#X#X#X#X#X#X#X#X#XO O O O O O #X#X#X#XO O O O O #X#X#X#X#X#X#X#X#X#X#X#X"
};
