/* XPM */
static char *result[] = {
/* columns rows colors chars-per-pixel */
"36 36 209 2 ",
"   c #760000",
".  c #7D0000",
"X  c #671716",
"o  c #702A15",
"O  c #4D3B39",
"+  c #5A3432",
"@  c #513E3C",
"#  c #583922",
"$  c #6D2F2D",
"%  c #60511D",
"&  c #7A6518",
"*  c #534721",
"=  c #5C4E2A",
"-  c #5A4B27",
";  c #534535",
":  c #5D5334",
">  c #5E502F",
",  c #65552E",
"<  c #604D33",
"1  c #695D3D",
"2  c #665738",
"3  c #7A5E3C",
"4  c #604E29",
"5  c #77673F",
"6  c #554341",
"7  c #5A4543",
"8  c #594B47",
"9  c #5C5455",
"0  c #484849",
"q  c #634D4B",
"w  c #674846",
"e  c #794A48",
"r  c #6A534F",
"t  c #66504E",
"y  c #775848",
"u  c #6D5552",
"i  c #675B54",
"p  c #725553",
"a  c #735A57",
"s  c #745C59",
"d  c #7E5A52",
"f  c #5C6453",
"g  c #7B625E",
"h  c #77605C",
"j  c #756745",
"k  c #455F75",
"l  c #525E6D",
"z  c #50686D",
"x  c #696566",
"c  c #7D6461",
"v  c #776B6B",
"b  c #6E6C70",
"n  c #757373",
"m  c #767678",
"M  c #7A797A",
"N  c #797473",
"B  c #8A0303",
"V  c #830807",
"C  c #9B0D0D",
"Z  c #A30504",
"A  c #AC0E0E",
"S  c #A60706",
"D  c #B50505",
"F  c #893331",
"G  c #922020",
"H  c #A32D2B",
"J  c #C80D0E",
"K  c #D51515",
"L  c #C81213",
"P  c #E01818",
"I  c #D21F20",
"U  c #F01F20",
"Y  c #C83837",
"T  c #EC2829",
"R  c #F42122",
"E  c #FF2627",
"W  c #F02F2F",
"Q  c #F13030",
"!  c #885216",
"~  c #8B7011",
"^  c #8C7626",
"/  c #85693C",
"(  c #824543",
")  c #864946",
"_  c #9C4B48",
"`  c #84584A",
"'  c #835956",
"]  c #915B57",
"[  c #B04F4D",
"{  c #856548",
"}  c #946C4B",
"|  c #86744B",
" . c #8A6658",
".. c #9C7456",
"X. c #947250",
"o. c #91605D",
"O. c #A57C5D",
"+. c #AA775A",
"@. c #B67E5B",
"#. c #836662",
"$. c #826A65",
"%. c #856D69",
"&. c #8A6A66",
"*. c #986965",
"=. c #8B726D",
"-. c #877567",
";. c #9E7969",
":. c #8E7671",
">. c #937B75",
",. c #967F79",
"<. c #987D74",
"1. c #A47E66",
"2. c #D34342",
"3. c #799563",
"4. c #9E8418",
"5. c #A98A0C",
"6. c #988534",
"7. c #B09F3B",
"8. c #B0AE3B",
"9. c #ABA02C",
"0. c #C79F05",
"q. c #D1AE0D",
"w. c #CDAD33",
"e. c #E8C306",
"r. c #E2D535",
"t. c #E1CC34",
"y. c #9C925C",
"u. c #A58158",
"i. c #B6825E",
"p. c #BD8642",
"a. c #82817D",
"s. c #9A827C",
"d. c #92827E",
"f. c #889F6B",
"g. c #BE8763",
"h. c #BF946C",
"j. c #A58777",
"k. c #B5917C",
"l. c #C5904E",
"z. c #C58B6A",
"x. c #C89973",
"c. c #D79874",
"v. c #C0906A",
"b. c #CEA57C",
"n. c #D6A86B",
"m. c #37728E",
"M. c #4D6D85",
"N. c #4C7B9A",
"B. c #7E7E80",
"V. c #3983B4",
"C. c #3693CC",
"Z. c #4E9ED0",
"A. c #54A4D5",
"S. c #7AB1D5",
"D. c #878789",
"F. c #9E8681",
"G. c #9F8A81",
"H. c #8E8E91",
"J. c #929294",
"K. c #A28A84",
"L. c #A68F89",
"P. c #A8938C",
"I. c #AE9790",
"U. c #B29B94",
"Y. c #B69F98",
"T. c #B09080",
"R. c #9F9FA2",
"E. c #A5A5A8",
"W. c #A6A6A9",
"Q. c #B4AFAB",
"!. c #BCB5A6",
"~. c #B7B7BB",
"^. c #BBBBBF",
"/. c #B0B0B3",
"(. c #C69E83",
"). c #CDA586",
"_. c #DCAD84",
"`. c #D5AD82",
"'. c #D5B998",
"]. c #D4B893",
"[. c #D6B08E",
"{. c #E7AC85",
"}. c #E8BB92",
"|. c #E1B389",
" X c #DEC19A",
".X c #E9C79B",
"XX c #F3CA9C",
"oX c #F9C79B",
"OX c #F7CDA0",
"+X c #FAD6A7",
"@X c #F5DBAE",
"#X c #F6D7A8",
"$X c #EED0A1",
"%X c #FFE1AF",
"&X c #F3E3A1",
"*X c #FEE3B6",
"=X c #89B0CA",
"-X c #C3C3C4",
";X c #CCCCCD",
":X c #C4C4C8",
">X c #CDCDD1",
",X c #D6D6D9",
"<X c PapayaWhip",
"1X c #DFDFE3",
"2X c #E8E7E8",
"3X c #F1F1F2",
"4X c #FDFDFD",
"5X c #FAF6F0",
"6X c None",
/* pixels */
"6X6X6X6X6X6X6X6X6X6X6X6X6X6X6X6X6X6X6X6X6X6X6X6X6X6X6X6X6X6X6X6X6X6X6X6X",
"6X6X6X6X6X6X6X6X6X6X6X6X6X6X6X6X6X6X6X6X6X6X6X6X6X6X6X6X6X6X6X6X6X6X6X6X",
"6X6X6X6X6X6X6X6X6X6X6X6 %.c q O O O 7 s %.c q O O O O O O O 6X6X6X6X6X6X",
"6X6X6X6X6X6XO O O O O O 8 g $.c r s $.$.c q a ,.c c h q @ O 6X6X6X6X6X6X",
"6X6X6X6X6X6XO @ 8 a v =.r a $.:.$.s.,.c $.:.,.s.c c u 6 O O 6X6X6X6X6X6X",
"6X6X6X6X6X6XO O 7 a :.K.s.%.%.>.K.K.,.$.:.s.s.:.$.$.c s s t 7 6X6X6X6X6X",
"6X6X6X6X6X7 q u u c %.>.G.,.:.>.K.,.:.:.:.:.,.F.>.:.=.c s r 7 6X6X6X6X6X",
"6X6X6X6X7 a c %.:.,.s.:.:.:.,.F.>.:.>.:.:.%.>.L.F.,.=.s u 8 7 6X6X6X6X6X",
"6X6XO @ q s c c ,.L.F.:.] &.F.U.F.:.=.>.,.%.c :.L.,.$.%.:.#.u 7 6X6X6X6X",
"6X6XO O O 6 u :.U.F.=.#.V ) s.I.U.:.g >.U.F.#.) $.c p e ] #.c a 7 @ 6X6X",
"6X6X6X6X@ s c s L.F.#.( A F ' >.I.&.' >.I.F.[ A ( #.( B D o w %.u 7 O 6X",
"6X6X6X@ u u q ; %.:.) B R J H :.:.H H :.:.:.[ R D F F D U A X O O 6X6X6X",
"6X6X6X@ u 7 ; - u $._ D U E Y s :.2.Y s :.c _ R D B   V S B X u @ 6X6X6X",
"6X6X6X6X@ 6X6X, ).;.1.{.oXoXXX.X#.(.(.p a a e ' *.p e e T J G a u 7 O 6X",
"6X6X6X6X6X6X6X, _.|.}..X| j 5 | ].#X'.$.a u u a =.=.#.) T J S G d 7 O 6X",
"6X6X6X6X6X6X6X, _.OX@X@X!.i i !.@X%X'.:.%.k.).[.,.:.=.*.W U K S + @ O 6X",
"6X6X6X6X6X6X6X, _.+X%X&X!.t v 2X*X%X'.,.).x.`.@Xs.:.:.*.Q E P S + O O 6X",
"6X6X6X6X6X6X6X, c.XX%XXX| # -.5X*X%X'.s..Xv.h.}.=.%.:.1.Q E K S + 6 6X6X",
"6X6X6X6X6X6X6X, +.|.OXXX! o u.<X*X%X'.s..Xx.@.1.a %.=.o.Q E P S + 6X6X6X",
"6X6X6X6X6X6X6X= 5 h.}.oXl.7.n.%X%X@X.Xk._.c.+.: u g g e I R P S X 6X6X6X",
"6X6X6X6X6X6X6X6X* } z.b.XXXXXX+X+X+XXX{.c.z.O.u t u p w C P P Z . 6X6X6X",
"6X6X6X6X6X6X6X6X6X6X, } i.i.v.b.b.b.x.i.z.+. .8 7 8 w + S P K Z . 6X6X6X",
"6X6X6X6X6X6X6X6X6X6X6X, : 2 2 2 1 1 1 j :.D.b 9 M i 6 6XZ K L     6X6X6X",
"6X6X6X6X6X6X6X6X6X6X6X:.Q.;X,X1X4X4X4X4X4X2X>X~.~.H.M 6X        6X6X6X6X",
"6X6X6X6X6X6X6X6X6X- & 0.q.&X4X4X4X2X>X^.^.>X>X~.~.~.R.m 6X6X6X6X6X6X6X6X",
"6X6X6X6X6X6X6X6X6X6X6X& e.f.=X4X1XS.N.9 M J.J.B.B.E.R.m 6X6X6X6X6X6X6X6X",
"6X6X6X6X6X6X6X6X6X6X6X: e.3.V.A.Z.C.m.: G.I.P.,.m /.:XE.B.6X6X6X6X6X6X6X",
"6X6X6X6X6X6X6X6X6X6X6X0 y.-.v b b b i - } j.1.&.N :X2X:XD.6X6X6X6X6X6X6X",
"6X6X6X6X6X6X6X6X6X6X6X0 x k k M.N.N.z = X.O...{ n ;X3X,XE.D.6X6X6X6X6X6X",
"6X6X6X6X6X6X6X6X6X6X6X= ^ f k M.N.N.z = ..O.X.d n ;X3X,X^.H.m 6X6X6X6X6X",
"6X6X6X6X6X6X6X6X6X6X6X% ~ ^ 6.7.8.8.9.4./ { 3 2 n ;X3X,X^.H.m 6X6X6X6X6X",
"6X6X6X6X6X6X6X6X6X6X6X6X* ~ 5.q.r.r.t.w.j > * : v ;X3X,X^.H.m 6X6X6X6X6X",
"6X6X6X6X6X6X6X6X6X6X6X6X6X6X* = j.k.j.<.<.1 * 6Xm ;X2X;XW.H.6X6X6X6X6X6X",
"6X6X6X6X6X6X6X6X6X6X6X6X6X6X6X= { ....` y < * 6Xm -X;XW.B.6X6X6X6X6X6X6X",
"6X6X6X6X6X6X6X6X6X6X6X6X6X6X6X= X...X.` y < * 6X6Xm m m 6X6X6X6X6X6X6X6X",
"6X6X6X6X6X6X6X6X6X6X6X6X6X6X6X6X* * * * * 6X6X6X6X6X6X6X6X6X6X6X6X6X6X6X"
};
