/* XPM */
static char *result[] = {
/* columns rows colors chars-per-pixel */
"36 36 168 2 ",
"   c black",
".  c gray3",
"X  c #464647",
"o  c #3F3F40",
"O  c #2F2F30",
"+  c #070707",
"@  c #0C0C0C",
"#  c #2F3030",
"$  c #333334",
"%  c #101010",
"&  c #242525",
"*  c #0D0D0E",
"=  c #373738",
"-  c #020202",
";  c #010101",
":  c #444545",
">  c gray9",
",  c #282929",
"<  c #252525",
"1  c #3C3C3D",
"2  c gray5",
"3  c #555556",
"4  c #2D2D2D",
"5  c #0E0E0E",
"6  c gray1",
"7  c #3A3A3A",
"8  c gray18",
"9  c #090909",
"0  c #2C2C2D",
"q  c #131313",
"w  c #3A3A3B",
"e  c gray7",
"r  c #2A2A2A",
"t  c #313132",
"y  c #222223",
"u  c gray2",
"i  c gray11",
"p  c #202021",
"a  c #3D3E3E",
"s  c #2D2E2E",
"d  c #323233",
"f  c #1D1D1D",
"g  c #303131",
"h  c #353636",
"j  c #3F4040",
"k  c #111112",
"l  c #282828",
"z  c #3C3D3D",
"x  c #1F1F20",
"c  c #383939",
"v  c #131414",
"b  c #39393A",
"n  c #010202",
"m  c #323333",
"M  c #151515",
"N  c #040404",
"B  c #404041",
"V  c #343434",
"C  c #424243",
"Z  c #333434",
"A  c #3F4041",
"S  c gray17",
"D  c #2B2C2C",
"F  c #111111",
"G  c #373838",
"H  c #383839",
"J  c #363637",
"K  c #3B3C3C",
"L  c #3E3E3F",
"P  c gray10",
"I  c #1B1B1B",
"U  c #060606",
"Y  c #353536",
"T  c #1C1D1D",
"R  c #434344",
"E  c #0C0C0D",
"W  c #3D3D3E",
"Q  c #404141",
"!  c gray6",
"~  c gray12",
"^  c #1B1C1C",
"/  c #303031",
"(  c gray21",
")  c #222222",
"_  c #1B1B1C",
"`  c gray19",
"'  c gray4",
"]  c #2F2F2F",
"[  c #242425",
"{  c #2E2E2F",
"}  c #0B0B0B",
"|  c #0B0B0C",
" . c #2D2D2E",
".. c #393A3A",
"X. c #2E2F2F",
"o. c gray8",
"O. c #1E1E1F",
"+. c #161717",
"@. c #272728",
"#. c #3B3B3C",
"$. c #0E0E0F",
"%. c #313232",
"&. c #101011",
"*. c #1E1E1E",
"=. c #313131",
"-. c #414243",
";. c #09090A",
":. c #101111",
">. c #272727",
",. c #121213",
"<. c #181818",
"1. c #29292A",
"2. c gray24",
"3. c #161617",
"4. c gray14",
"5. c #434444",
"6. c #181919",
"7. c #0F0F10",
"8. c #3A3B3B",
"9. c #252526",
"0. c #232323",
"q. c #212222",
"w. c #292A2A",
"e. c #343535",
"r. c #161616",
"t. c #0B0C0C",
"y. c #282829",
"u. c #2C2C2C",
"i. c #2B2B2C",
"p. c #323232",
"a. c #121313",
"s. c #343435",
"d. c gray23",
"f. c #232424",
"g. c #1A1B1B",
"h. c gray15",
"j. c #363737",
"k. c #4C4C4D",
"l. c gray13",
"z. c #393939",
"x. c #1D1E1E",
"c. c gray20",
"v. c #252626",
"b. c #212122",
"n. c #2A2A2B",
"m. c #050504",
"M. c #444445",
"N. c #202020",
"B. c #2C2D2D",
"V. c #1D1D1E",
"C. c #020203",
"Z. c #1F2020",
"A. c #454546",
"S. c #1E1F1F",
"D. c #191A1A",
"F. c #262627",
"G. c #171818",
"H. c #0E0F0F",
"J. c #3C3C3C",
"K. c #141515",
"L. c #262727",
"P. c #3E3F3F",
"I. c #070708",
"U. c #353535",
"Y. c #151516",
"T. c #191919",
"R. c #232324",
"E. c gray26",
/* pixels */
"                                    . X o O +                           ",
"                      @ # $         % &   * =   - ;                     ",
"                      : > ,         % <     1 - 2 3 4 5                 ",
"                    6 7 8 9         % <     0 q ; w e r t y u           ",
"                    i p a           % <     @ s   d     u f = g 2       ",
"                    w . h           % <       j   < k       ; 2 l z x - ",
"                    c v i           % &       b n 5 m             6 f b ",
"9 % % % % % % % % e # s M % % % % N 2 B V V V C @ ; B $ V V V V V V Z A ",
"h r S S S S S S S D @ F S S S S V f   - - - - - ;   ; - - - - - - - - - ",
"m G c c c c c c H J N K H c c c L P 6 P I I I I M   U P I I I I I I I M ",
"                6 Y x T             % c f f f f R - E W f f f f f f f Q ",
"                ! O 1 U             % <         ~ ^ ; /               ( ",
"                ) _ =               % <         U w   ` '             ( ",
"                s 9 ]               % <         ; G   [ _             ( ",
"              6 ` p I               % <           { 6 } 8             Y ",
"F |           %  ...U               % <           i f ; K ;     U i X.h ",
"h 4 W ] o.N   ) O.J                 % <           U ..  Z +.@.#.Z p $.- ",
"%.O M &.*.=.K -.M s                 % <         ; ;.L - 5 & k N     U :.",
"- 2 >.K h ) ,.. 2 L # *.| -         % < ; . <.1.2.h 3.;     N e 4.= b 5.",
"        6 % Y f 6.*.! o.g #.0 I ' ; 7.j 8.c f . ;   6 N   %.K 9.2 -   ( ",
"            0.F h q.# ` w.P o.& e.r.N e -   - t.f y.u.i.  p.@         ( ",
"            V a.]       2 & / c 8.*.  ; e t s.D T +   8 - r.<         ( ",
"          N d.f.g.            ; h.~   Y 4 '           0 ! u 1         ( ",
"          e >.j.u             N k.*.  @ h             I l.; z.;       ( ",
"          X.% a               / f.f     h.x.          N c.  v.@       ( ",
"          z q w.            % 8 b.3.U + N W 6           #.6 q <     ; 8.",
"n.9.m.  N ] v.2             K ,.Y   7.M.  % 4           , &.u 1 + @.d.N.",
"s.> 8 B.l.V.= C.          p Z.{ 5   % A.S.  e.5         5 ) ; H X.D.6   ",
"M d <.F , ;.A ;         u a > F.    % l c.N u j       ; % (   N ; ; k %.",
"  - G.Y x.; 4.K _ -     H $.7 u     % < M s   f ~ 6 V.w F..   ; f K 0.7 ",
"      9 / S.S H.y J.N.K.] L.M       % < ; s.5 ; B K S.6   U u N J 6   ( ",
"      q.x.#.@ m m M 3.h . P.        % < ; ! d.  6   ; 5 B.j 8 ; O 6   ( ",
"      # % u.    9 1.Y   + Z ` r.-   % G X.p.F     I.U.# e - 1   4.6.  ( ",
"      ` r.D.      U J Y.w 1.9 S K ! 9 i.. ;   T.N N #.6     t N e s ; W ",
"    9 1. .9     ; #.' j   v d c.6.R.  ; 6 i.= v.h   _ f.    S.o.N Q z O.",
"    | a E.;     f w.c.!       ' Y V.6 / #.o.    t q   d 9   % /   ! -   "
};
