/* XPM */
static char *_36322e4ed4542feb96451c0feba3665JBn7rHNqCPv9roMd[] = {
/* columns rows colors chars-per-pixel */
"36 36 31 1 ",
"  c #020B49",
". c #010A48",
"X c #020A47",
"o c #010B48",
"O c #010A47",
"+ c #020B48",
"@ c #010A49",
"# c #010A46",
"$ c #010B49",
"% c #020A48",
"& c #010A42",
"* c #010941",
"= c #010A44",
"- c #010A43",
"; c #010A45",
": c #01083B",
"> c #010940",
", c #020A49",
"< c #010942",
"1 c #01093F",
"2 c #01083A",
"3 c #01083C",
"4 c #010732",
"5 c #010943",
"6 c #010837",
"7 c #010731",
"8 c #010839",
"9 c #01093E",
"0 c #01093D",
"q c #010734",
"w c #010735",
/* pixels */
"                   . ..             ",
"          X        .oO.             ",
"          O   +. O..@#O$o  +.       ",
"   .%         ++ %   &O.O  .+       ",
"   .*%          .+. +#=o*%.         ",
"    +      ..  @-O ..O.+. .         ",
"            %$ .;;X.O#...O          ",
"            ..X#.@:.##.%O.$         ",
"   ..%.      ....>##.:+o,X...       ",
" .  . .. .   .o#*;<O*#O+....O..O    ",
" #    .. . O#;O..&X=-O#;. .  .      ",
"  o.       o%+O#*O12;3:4#.O   .O    ",
" .@+   + + .=#5=1>6=7<O*.+%o  @ %,  ",
" .>%..$..o..#.%8:*33;--*OOXO,....   ",
" %.........+ X953O*;@< ++;. O. .O   ",
"    .  %O%;O#;*05O=1O;o-%%.$.+      ",
"    . +$o.#X+ 291--4O #%%%o%. +     ",
"    .,.. +..##==q#37O<@..#1% ..     ",
"..  .#++.+@;#;.O.;1;@%..OO...O;@    ",
"..  .   O+=<O.%O.%.=5#;@.% .%#.     ",
"   .    +.X;..+##*##>-OOOO          ",
"   .    %X9wO+.+.#=..O  +%       +  ",
"     ...=#o .=oO=.X %% .         .. ",
"    O%#@,;%O#+O.%.;O;  .        +   ",
"    +...16,..+.......  .%.+     .+. ",
"     ;..=<. .. .......+.@..      ++ ",
"     o   .;.#..  ..#. O...          ",
"    .  @#$.%+o..  .;.o.X%%. . .@*+.;",
"+   . %1@.O.+.+o+$#;+  +%o  .%  $$+,",
"..     +;...+++. .,=+  ...        + ",
" +     .+    +  %+   %   .  .  O%   ",
"     .      .  .     .  . .... ...  ",
"    %o      +  .  .    ..%  ..  .   ",
"    O%         ..+O     .O  .       ",
"  %=.       .@ ..*;   .    .O       ",
"   $        ;@  . .%       ..   .   "
};