/* XPM */
static char *result[] = {
/* columns rows colors chars-per-pixel */
"36 36 94 2 ",
"   c #294039",
".  c #273E37",
"X  c #29413A",
"o  c #274039",
"O  c #284039",
"+  c #28403A",
"@  c #283F38",
"#  c #263C35",
"$  c #263D36",
"%  c #273F38",
"&  c #273E38",
"*  c #28413A",
"=  c #283F39",
"-  c #29413B",
";  c #273F39",
":  c #263E37",
">  c #263D37",
",  c #263C36",
"<  c #243B35",
"1  c #294038",
"2  c #273F37",
"3  c #27403A",
"4  c #263D35",
"5  c #273D36",
"6  c #273E36",
"7  c #284038",
"8  c #293F37",
"9  c #28413B",
"0  c #2A423B",
"q  c #294139",
"w  c #273D35",
"e  c #29403A",
"r  c #293F38",
"t  c #2A4038",
"y  c #2A423A",
"u  c #273D37",
"i  c #263F38",
"p  c #253B34",
"a  c #2B423A",
"s  c #283F37",
"d  c #283E37",
"f  c #2C423A",
"g  c #2A4139",
"h  c #2B433B",
"j  c #283E36",
"k  c #273C35",
"l  c #2A413A",
"z  c #284139",
"x  c #253C36",
"c  c #243B34",
"v  c #263C34",
"b  c #2A4039",
"n  c #253C35",
"m  c #253C34",
"M  c #2A433B",
"N  c #2B4139",
"B  c #243A33",
"V  c #233932",
"C  c #263E38",
"Z  c #233831",
"A  c #283D36",
"S  c #263F39",
"D  c #243A32",
"F  c #293E36",
"G  c #253D35",
"H  c #253D36",
"J  c #243932",
"K  c #243A34",
"L  c #263A33",
"P  c #223731",
"I  c #263B34",
"U  c #263E36",
"Y  c #253B33",
"T  c #253B35",
"R  c #253A33",
"E  c #29423A",
"W  c #253932",
"Q  c #233832",
"!  c #243933",
"~  c #263B33",
"^  c #223630",
"/  c #243831",
"(  c #293F36",
")  c #233730",
"_  c #253A32",
"`  c #273C34",
"'  c #223730",
"]  c #233630",
"[  c #233931",
"{  c #283C35",
"}  c #2B4239",
"|  c #243931",
" . c #283F36",
".. c #293E35",
/* pixels */
"  . . X o O + + @ @ #   X @ . $ % & . O O * + O + *   = + - + ; % : > O ",
"O . . % . X . @       * - , % * ; < > & . ; 1 2 % + X ; % O X + O + 3 ; ",
"  @ 2 4 . @ 5 , O . O O O 6 . O + : o % : % + @ % X + 1 X O o X O . % % ",
"X @ 7 7 6 8 . = = @ 9 . . O 0 % ; % % & @ @ + % ; @ q % O * O     % % $ ",
"  . 5 w 1 1 6 6 @ e X O   O X o 9 + O . % o % q q O X - . @ 1   + & : $ ",
"r w t y 5   . & @ @ e X ; O % u ; ; O i % & p O @ @   @ @ . * @ = O . q ",
"a s d f a X r g @ @ & O X * % % & , : O . 2 : . O @ X O + @ 6 . @ % @ 7 ",
"h   s y 1 j k y 1     q ; l z 3 $ u . > . x c 4 d d @ % v $ : % s O X @ ",
"0 0   1 q 8 j b s % O % % + . : n # $ 6 m 5 n p 5 &   % $ = X % - O = @ ",
"M + @ X N s # . 4   $ 7 % . 4 # % . $ n B V # . 4 % O @ . @ 7 7     O O ",
"X q s s s d 5 w d @ $ 2 5 c # $ : C n p V Z # . 6 % @ = % X ;   X + * * ",
"y X     7 8 A $ . . . O r o $ : : S B n c D m 4 p 5 : . x . . % O O @ + ",
"0 X     = j @ F   . . 5 . . % 6 s > B $ n p p G v 5 $ . . @ . % O @ j @ ",
"h y @ @ $ # & $ . . 7 w 8 . % > > H n n n c D J x $ $ s d 2   % q @ % O ",
"X X X a d 6 # 5 5 5 # % . = % . $ $ K n p L > 5 # # # . O = O % % # v X ",
"0 q q % . 6 d k w $ p $ $ $ &   $ & $ n > # p # n w # 5 $ 7 4 O O = . @ ",
"X 1 @ % @ B J B % . $ . C @ = . $ p C : & 4 m P J p p $ w 4 B 6 % $ 5 k ",
"@ q . @ I @ # # $ . 4 & @ : & ; $ C $ . & p U n $ v v n v v # L w p F u ",
"  . 7 . 6 4 U Y p v m % & . p : : O : & $ n T m p w 4 4 m v 5 R d 5 @ # ",
"E q @ O $ $ n W Q # 2 s % $ @ $ : s $ % 4 p c v Y p # R p j v Y w s 5 6 ",
"l s @ . D p 4 # v p 6 . $ $ = ; O : % & n H R p m R R p # # p # w . j O ",
"@ 6 6 5 w v k # # . . m , + : 3 O : & $ p : R ! c m p # Z 6 # 6 4 4 d s ",
"$ Y 5 s # p p v $ . 4 5 . % ; ; @ C % C # n J J p R B $ $ # 4 w j 2 2 O ",
". w . 6 4 # p . $ $ . 4 p : % O @ & n $ $ n . $ R ! m . % 6 s s g r   * ",
". @ O # # # $ # 6 # : = t s . . O % & . v J # Y $ p V p n % @ s 6 1 q   ",
"- s O 4 # w ~ # d p m $ $ & = & . $ : 2 p ^ 4 5 T Q Q 5 v % b @ d q O % ",
"X @ X @ I # v p 4 m J p # $ # # B $ n 4 p Z / ~ $ $ R . @ # 1 @ . l q   ",
"@ . $ j I # j p 5 ( ) B $ R J # $ : c Y J V v 4 p _ p # @ @ 7 X . O 0 X ",
"# j f @ w r @ 4 w n _ 4 n # p n G m n n $ p $ Y p 4 # 6 = + @ @ 2   - E ",
"d 1 1   s A @ 6 j k 8 j J Z Q n m D v k 4 6 # k $ n 5 . > . @ @ s @ + - ",
". 5 @ y @ d 1 6 ` 6 6 w ~ ' ] B D J p R R [ Y . 4 F T 5 % @ O O . s q O ",
"g l g . g s r t ( p R B { ' J R Y V w R m p # B v . 6 j : . 7 5 1 O l * ",
"X @ @ 5 0 } r w 1 6 # j I | Y I p ) R B Y R x n 6 2 d 5 F 5 @ . O @ % * ",
"g 1 1 q   g 1 8 1  .w d j ..# m Y D w Y p # $ @ u & . $ 1 @ . O s s * * ",
"g   s 1 a 1 t g 8   b @ # R R R 5 p p p J n @ % n p @ 6 @   % t ; % @ O ",
"d 1 s t N 8 y g l y X . r d 4 5 O . 5 n 5 7 % . $ . n . . % O @ O * O @ "
};