/* XPM */
static char *result[] = {
/* columns rows colors chars-per-pixel */
"36 36 77 1 ",
"  c #323232",
". c gray21",
"X c gray18",
"o c #2C2C2C",
"O c #343434",
"+ c gray19",
"@ c gray9",
"# c gray12",
"$ c gray16",
"% c #282828",
"& c #232323",
"* c #0E0E0E",
"= c #353535",
"- c gray27",
"; c gray30",
": c gray28",
"> c #4E4E4E",
", c #434343",
"< c #3A3A3A",
"1 c #3C3C3C",
"2 c gray29",
"3 c #414141",
"4 c gray6",
"5 c #101010",
"6 c #4C4C4C",
"7 c gray31",
"8 c #444444",
"9 c #1E1E1E",
"0 c #313131",
"q c #3F3F3F",
"w c gray24",
"e c #373737",
"r c #2A2A2A",
"t c #1B1B1B",
"y c gray25",
"u c gray10",
"i c gray20",
"p c #1D1D1D",
"a c gray23",
"s c gray22",
"d c #535353",
"f c #4B4B4B",
"g c gray32",
"h c #505050",
"j c gray7",
"k c #515151",
"l c #393939",
"z c #131313",
"x c gray17",
"c c #2F2F2F",
"v c #090909",
"b c #202020",
"n c #3E3E3E",
"m c #181818",
"M c gray14",
"N c #484848",
"B c #464646",
"V c #494949",
"C c gray2",
"Z c gray13",
"A c #222222",
"S c gray8",
"D c #252525",
"F c gray15",
"G c #555555",
"H c gray11",
"J c #191919",
"K c gray26",
"L c #272727",
"P c gray33",
"I c #2D2D2D",
"U c #161616",
"Y c gray5",
"T c #565656",
"R c gray34",
"E c #151515",
"W c gray3",
/* pixels */
" .XooO+@#$%X&%@*=-;:>>;+O,<123+45X67",
"2890<qwq1ert--3yw1<ui3yqy3ypaasi+=.p",
"dd%fgddgghja7gggggk0g7ggdgkX7gdddddO",
"wlzxs cXscv&1yyyy3ybnlO.<elm=esllw1M",
"6f;26NsMfBV2NoCZx*xe= arAS33BN,wqM.y",
"gd;gdd2edddddh:.NDV>7h77fFGddddggFVd",
"oxHi==x93Oe<8-eJpu31q3Ky3H,-8K,VN#,:",
"yq,3$>>;;VffLVVV2V2Vbx>77>7;0O26:VVK",
"k7gglgBdddPP+PddPPdPa;ggg;67nKddgddd",
"1eXiJ1e0Ol.<u+0== IcMI<.ec LZxwqy,B,",
"V,-NV:p8>;;;f711kgggdddmBNN::B-HnVf2",
"ddPdd7JkdddddP:yddddddkZPdddddgH;ddd",
"LZp0+xuFiiZDL$Ax0+IIXXMULcXri+cYi=eO",
"dd&GTGGTTGOGTTTTTT8.GGGTTRkXhhhhh>;U",
"dgZPPPPPPPIPPPPPPd3<PPPPPdkidddgddPM",
"1<uO=lo.a.Z1aeII0+#tcO on10J0 sDisim",
"h7hhh7D6kkgggk007>77h7Vtkkg7hf>pV767",
"PPPddPA;dgddgk+Xdh;ddkhFPdPPPPPL;gdg",
"O0OOOOz99bO<eXAHFDur$%#UXioii 0@I+$c",
"fM>>h>kk7H:PddPddNoPPPPdgg ggddggkch",
"7oddPgfh653PPPPPgVLdPPPPdGXdPPPdPd=P",
"it+IoZmFxJM=.cLOocuoO=xLX uc.= Daab+",
"GGGPd;#PPGGGGG12gPPddG6MdPPPGPPZPPGP",
"PPPPPdZgdPGGPP<:PPghPP6tdPdPddd%dddd",
"eLFee<MoIoU0  L$%Fm59JH4Lobmb$bE%r$Z",
"P=sPPPhkdP&ddPPPPG<,PhPGGPf&7PGGGTTr",
"P skkkk>;7AhdPddPd=VdPPPPdq&ddddPPPZ",
"i%rIoXJAp9@9ZbHpcoA+.=%Fx+u@X0c$ 0+m",
"dddddkIdkkkkfsE97gkgggOohh76>7VA66;7",
"kkggg;$gdddggdo;dddPddlAh>Pdddk%Pddd",
"mFLFDZmZJp&MMXzbrAX=iXp*xor=<eDzc0Il",
"%dPddkg2H27kkhh70bfkhgd>d&x1>kh7;2xN",
"LB26;hghiB777h7hqi7kkddddDXVdgddkgcn",
"@9Ju#ZZbzEEptmjmzm&DLor$&WzM$%r$xLJU",
"hf;7grxk>>kdk7@2V6;27;Z$w- K7>+&h7>k",
"gghgkaIh7khddgm2f6ghkgcn6>hhddl%7,Kk"
};
