/* XPM */
static char *result[] = {
/* columns rows colors chars-per-pixel */
"36 36 151 2 ",
"   c #201D1E",
".  c #2B1F21",
"X  c #282224",
"o  c #4A2D2F",
"O  c #4A3234",
"+  c #615253",
"@  c #B61A28",
"#  c #B71B28",
"$  c #B71B29",
"%  c #B81B28",
"&  c #B81B29",
"*  c #B81C28",
"=  c #BA1C28",
"-  c #BB1C28",
";  c #BC1C28",
":  c #BD1C28",
">  c #BC1F28",
",  c #91262C",
"<  c #BD2028",
"1  c #A3383E",
"2  c #C21C27",
"3  c #C51C27",
"4  c #C71D27",
"5  c #C81D27",
"6  c #CB1D27",
"7  c #CC1D27",
"8  c #CF1D26",
"9  c #CE1D27",
"0  c #CF1D27",
"q  c #C31C28",
"w  c #D01A25",
"e  c #D01B25",
"r  c #D11C25",
"t  c #D01D25",
"y  c #D21C25",
"u  c #D01C26",
"i  c #D01D26",
"p  c #D11D26",
"a  c #D01D27",
"s  c #D11D27",
"d  c #D01E26",
"f  c #D11E26",
"g  c #D01E27",
"h  c #D11E27",
"j  c #D11F27",
"k  c #D21F26",
"l  c #C82A27",
"z  c #CB2D27",
"x  c #C22528",
"c  c #C42728",
"v  c #D22026",
"b  c #D32026",
"n  c #D32126",
"m  c #D02226",
"M  c #D32227",
"N  c #D52426",
"B  c #D72726",
"V  c #D82926",
"C  c #D82927",
"Z  c #DA2E26",
"A  c #D12129",
"S  c #D1262A",
"D  c #D2292B",
"F  c #D03027",
"G  c #D03227",
"H  c #D33427",
"J  c #DA3A26",
"K  c #DB3B27",
"L  c #DC3C26",
"P  c #D83029",
"I  c #D83B2E",
"U  c #D93F2F",
"Y  c #D6363E",
"T  c #DF4026",
"R  c #D44938",
"E  c #CF5D3A",
"W  c #DA5E3B",
"Q  c #E14126",
"!  c #E34226",
"~  c #E74626",
"^  c #E84126",
"/  c #EA4526",
"(  c #EB4A26",
")  c #ED4B25",
"_  c #EE4A25",
"`  c #EE4B26",
"'  c #EF4D25",
"]  c #EF4E25",
"[  c #F04F25",
"{  c #F14F25",
"}  c #F15025",
"|  c #BC3B42",
" . c #D63A42",
".. c #D73B43",
"X. c #D73E45",
"o. c #BA4A50",
"O. c #875D60",
"+. c #BA5F64",
"@. c #D2444A",
"#. c #D7444B",
"$. c #D84149",
"%. c #D9474F",
"&. c #D8504B",
"*. c #DB5158",
"=. c #D66441",
"-. c #DD7B45",
";. c #E0686E",
":. c #E16E74",
">. c #E2757B",
",. c #E4787E",
"<. c #DA9553",
"1. c #DDB45E",
"2. c #E0A556",
"3. c #E2B85D",
"4. c #E47E83",
"5. c #9A8C8D",
"6. c #BF9597",
"7. c #E9969A",
"8. c #CEBDBE",
"9. c #DDB5B7",
"0. c #ECA6AA",
"q. c #F0B6B9",
"w. c #F0B7BA",
"e. c #F0B8BB",
"r. c #F1BBBE",
"t. c #F1BDBF",
"y. c #F2C2C5",
"u. c #F3C4C6",
"i. c #F6D4D5",
"p. c #F7DADC",
"a. c #F7DBDC",
"s. c #F8DADC",
"d. c #F8DDDE",
"f. c #F9E2E3",
"g. c #F9E3E5",
"h. c #FAE8E9",
"j. c #FBEAEA",
"k. c #FBEBEB",
"l. c #FBEFF0",
"z. c #FCEFF0",
"x. c #FBF0F0",
"c. c #FDF5F6",
"v. c #FDF7F7",
"b. c #FEFBFB",
"n. c #FDFDFD",
"m. c #FEFCFC",
"M. c #FEFDFD",
"N. c #FEFEFE",
"B. c #FFFEFE",
"V. c white",
"C. c None",
/* pixels */
"C.C.C.C.C.C.C.C.C.C.C.C.C.C.C.C.C.C.C.C.C.C.C.C.C.C.C.C.C.C.C.C.C.C.C.C.",
"C.C.C.C.C.C.C.C.C.C.C.C.C.i i C.C.C.C.C.C.C.C.C.C.C.C.C.C.C.C.C.C.C.C.C.",
"C.C.C.C.C.C.C.C.C.C.C.i C.C.C.p d C.C.C.C.C.C.C.C.C.C.C.C.C.C.C.C.C.C.C.",
"C.C.C.C.C.C.C.C.C.C.C.C.C.C.C.C.C.i C.C.C.C.C.C.C.C.C.C.C.C.C.C.C.C.C.C.",
"C.C.C.C.C.C.C.C.C.C.C.C.C.C.C.C.C.i C.C.C.C.C.C.C.C.C.C.C.C.C.C.C.C.C.C.",
"C.C.C.C.C.C.C./ ^ C.C.C.C.C.C.C.C.C.p C.C.C.C.C.C.C.C.C.C.C.C.C.C.C.C.C.",
"C.C.C.C.C.C.C.` ` C.C.C.C.C.C.C.C.C.p C.C.C.C.C.C.C.C.C.C.C.C.C.C.C.C.C.",
"C.C.C.C.C.C.C.C.C.C.C.C.C.i.k.h.C.C.C.i C.C.C.C.C.C.C.C.C.C.C.C.C.C.C.C.",
"C.C.C.C.C.C.C.C.t.0.y.C.g.B.N.N.z.C.C.i C.z C.C.C.C.C.C.C.C.C.C.C.C.C.C.",
"C.C.C.C.C.C.C.*.q.6.| a.n.M.N.V.B.;.h p C.# l C.C.C.C.C.C.C.C.C.C.C.C.C.",
"C.C.C.C.C.C.C.#., X o 9.1 @.d.N.V.:.h p 8 : @ Q C.C.C.C.C.C.C.C.C.C.C.C.",
"C.C.C.C.C.C.C.e.o.O 5.+   8.w.b.m.$.h s s 0 ; G C.C.C.C._ C.C.C.C.C.C.C.",
"C.C.C.C.C.C.C.C.j.x.p.O.. +.4.M.r.t h h h a 9 C.C.= ! { C.C.C.C.C.C.C.C.",
"C.C.C.C.C.C.C.C.C...%.s.>.,.l.f.Y h h h h h i C.% J } C.C.C.C.C.C.C.C.C.",
"C.C.C.C.C.C.C.C.<.p h 7.c.v.u. .h h h h h h a 4 # L } C.C.C.C.C.C.C.C.C.",
"C.C.C.C.C.C.C.C.1.e d R &.X.A p f i p s h h h 6 * > ~ ' C.C.C.C.C.C.C.C.",
"C.C.C.C.C.C.C.E 3.I P 2.D w S s g p p i f h h 7 # F ] C.C.C.C.C.C.C.C.C.",
"C.C.C.C.C.C.N u r k k b B -.=.p a f g p p g a 5 $ K [ C.C.C.C.C.C.C.C.C.",
"C.C.C.C.C.C.f v j d h h h M C W U V a h s i a 2 * > ( C.C.C.C.C.C.C.C.C.",
"C.C.C.C.C.C.i f f f h h h h i y u n h h g p h C.* x ) C.C.C.C.C.C.C.C.C.",
"C.C.C.C.C.C.i p f h h h h h h h h a g a 9 m Z C.C.H } C.C.C.C.C.C.C.C.C.",
"C.C.C.C.C.C.C.d i h h h h h h h h g q - & c C.C.C.C.' C.C.C.C.C.C.C.C.C.",
"C.C.C.C.C.C.C.C.C.i g h h h h h h i 3 : < T C.C.C.C.C.C.C.C.C.C.C.C.C.C.",
"C.C.C.C.C.C.C.C.C.C.C.i i i g g i p C.C.C.C.C.C.C.C.C.C.C.C.C.C.C.C.C.C.",
"C.C.C.C.C.C.C.C.C.C.C.C.C.C.C.C.C.C.C.C.C.C.C.C.C.C.C.C.C.C.C.C.C.C.C.C.",
"C.C.C.C.C.C.C.C.C.C.C.C.C.C.C.C.C.C.C.C.C.C.C.C.C.C.C.C.C.C.C.C.C.C.C.C.",
"C.C.C.C.C.C.C.C.C.C.C.C.C.C.C.C.C.C.C.C.C.C.C.C.C.C.C.C.C.C.C.C.C.C.C.C.",
"C.C.C.C.C.C.C.C.C.C.C.C.C.C.C.C.C.C.C.C.C.C.C.C.C.C.C.C.C.C.C.C.C.C.C.C.",
"C.C.C.C.C.C.C.C.C.C.C.C.C.C.C.C.C.C.C.C.C.C.C.C.C.C.C.C.C.C.C.C.C.C.C.C.",
"C.C.C.C.C.C.C.C.C.C.C.C.C.C.C.C.C.C.C.C.C.C.C.C.C.C.C.C.C.C.C.C.C.C.C.C.",
"C.C.C.C.C.C.C.C.C.C.C.C.C.C.C.C.C.C.C.C.C.C.C.C.C.C.C.C.C.C.C.C.C.C.C.C.",
"C.C.C.C.C.C.C.C.C.C.C.C.C.C.C.C.C.C.C.C.C.C.C.C.C.C.C.C.C.C.C.C.C.C.C.C.",
"C.C.C.C.C.C.C.C.C.C.C.C.C.C.C.C.C.C.C.C.C.C.C.C.C.C.C.C.C.C.C.C.C.C.C.C.",
"C.C.C.C.C.C.C.C.C.C.C.C.C.C.C.C.C.C.C.C.C.C.C.C.C.C.C.C.C.C.C.C.C.C.C.C.",
"C.C.C.C.C.C.C.C.C.C.C.C.C.C.C.C.C.C.C.C.C.C.C.C.C.C.C.C.C.C.C.C.C.C.C.C.",
"C.C.C.C.C.C.C.C.C.C.C.C.C.C.C.C.C.C.C.C.C.C.C.C.C.C.C.C.C.C.C.C.C.C.C.C."
};
