/* XPM */
static char *result[] = {
/* columns rows colors chars-per-pixel */
"30 30 9 1 ",
"  c #F9CF2B",
". c #FACF2B",
"X c #F9CF2C",
"o c #FACF2C",
"O c #F9D02B",
"+ c #FAD02B",
"@ c #F9D02C",
"# c #FAD02C",
"$ c None",
/* pixels */
"$$$$$$$$$$$$$$$$$$$$$$$$$$$$$$",
"$$$$$$$$$$$$$$$$$$$$$$$$$$$$$$",
"$$$$$$$$$$$XX#####O$$$$$$$$$$$",
"$$$$$$$$$$o########@@$$$$$$$$$",
"$$$$$$$$##############$$$$$$$$",
"$$$$$$$$##############@$$$$$$$",
"$$$$$$$##oX#.######o###$$$$$$$",
"$$$$$$o##X$$.#####$$X###$$$$$$",
"$$$$$$###X$$$.###$$$$###$$$$$$",
"$$$$$$###$$$$####$$$$###$$$$$$",
"$$$$$$###$$$$@###$$$$###o$$$$$",
"$$$$$$### $$$####$$$$###X$$$$$",
"$$$$$$####$$X@###+$$O###X$$$$$",
"$$$$$$####oo@#### XX####X$$$$$",
"$$$$$$#######$$$$@.#####X$$$$$",
"$$$$$$######$$$$$$O#####X$$$$$",
"$$$$$$######$$$$$$O#####X$$$$$",
"$$$$$$######X$$$$.O#####X$$$$$",
"$$$$$$##################X$$$$$",
"$$$$$$##################X$$$$$",
"$$$$$$##XX####o#####@ ##X$$$$$",
"$$$$$$#o$$@##O$$ ##O$$ #X$$$$$",
"$$$$$$  $$$#@@$$$##.$$X#o$$$$$",
"$$$$$$#$$$$@#$$$$X $$$$ $$$$$$",
"$$$$$$$$$$$$$$$$$$$$$$$$$$$$$$",
"$$$$$$$$$$$$$$$$$$$$$$$$$$$$$$",
"$$$$$$$$$$$$$$$$$$$$$$$$$$$$$$",
"$$$$$$$$$$$$$$$$$$$$$$$$$$$$$$",
"$$$$$$$$$$$$$$$$$$$$$$$$$$$$$$",
"$$$$$$$$$$$$$$$$$$$$$$$$$$$$$$"
};
