/* XPM */
static char *result[] = {
/* columns rows colors chars-per-pixel */
"36 36 143 2 ",
"   c #201D1E",
".  c #201E1F",
"X  c #2B1E1F",
"o  c #6A2B2F",
"O  c #544F4F",
"+  c #5C4C4D",
"@  c #624D4F",
"#  c #931D23",
"$  c #B71B28",
"%  c #B71C28",
"&  c #B81B28",
"*  c #B91B28",
"=  c #B81C28",
"-  c #BB1F28",
";  c #BD1C28",
":  c #BF1C28",
">  c #BC1F28",
",  c #A13238",
"<  c #C41C27",
"1  c #C61C27",
"2  c #C61D27",
"3  c #C81D27",
"4  c #CA1D27",
"5  c #CB1D27",
"6  c #CC1D26",
"7  c #CC1D27",
"8  c #CD1D27",
"9  c #CF1D27",
"0  c #D01B26",
"q  c #D11B26",
"w  c #D01C26",
"e  c #D01D26",
"r  c #D11D26",
"t  c #D01D27",
"y  c #D11D27",
"u  c #D01E26",
"i  c #D11E26",
"p  c #D11F26",
"a  c #D01E27",
"s  c #D11E27",
"d  c #D31F26",
"f  c #C72927",
"g  c #CC2D27",
"h  c #CF2E27",
"j  c #C22528",
"k  c #C72828",
"l  c #C82828",
"z  c #D22026",
"x  c #D42326",
"c  c #D52426",
"v  c #D72726",
"b  c #D72927",
"n  c #D92B27",
"m  c #DC2F26",
"M  c #D22328",
"N  c #D2222B",
"B  c #D2282A",
"V  c #D52B29",
"C  c #D72F29",
"Z  c #D52E2A",
"A  c #D13327",
"S  c #D23327",
"D  c #D33327",
"F  c #D53727",
"G  c #DF3326",
"H  c #D73827",
"J  c #DD3D26",
"K  c #DD3E26",
"L  c #D2322F",
"P  c #D5322D",
"I  c #D6362D",
"U  c #D32830",
"Y  c #D0363E",
"T  c #DA402E",
"R  c #DB402E",
"E  c #D44033",
"W  c #D84030",
"Q  c #D85E3D",
"!  c #E14126",
"~  c #E74625",
"^  c #E64626",
"/  c #E94826",
"(  c #EE4C26",
")  c #F04E25",
"_  c #F04F25",
"`  c #F04E26",
"'  c #F04F26",
"]  c #F14F26",
"[  c #F25025",
"{  c #F15026",
"}  c #D63A41",
"|  c #D63C41",
" . c #82686A",
".. c #D8424A",
"X. c #DD595F",
"o. c #D76C43",
"O. c #DE5E64",
"+. c #C26469",
"@. c #DF6369",
"#. c #DD6A70",
"$. c #E27177",
"%. c #CA8046",
"&. c #D9864D",
"*. c #DB9F56",
"=. c #DCA759",
"-. c #E0CF68",
";. c #E47E83",
":. c #C68084",
">. c #DD898E",
",. c #E6878B",
"<. c #E78E8D",
"1. c #E68C90",
"2. c #E78E93",
"3. c #EA9B9F",
"4. c #EA9DA1",
"5. c #DDABAD",
"6. c #C6AEB0",
"7. c #D5B0B2",
"8. c #ECA0A4",
"9. c #EEAFB2",
"0. c #EEB6B3",
"q. c #F0B8BB",
"w. c #F1BEC1",
"e. c #F2C0C2",
"r. c #F4C8CB",
"t. c #F5CFD1",
"y. c #F6D0D1",
"u. c #F6D5D7",
"i. c #F9DCDD",
"p. c #F8DDDE",
"a. c #FAE6E7",
"s. c #F7EDEE",
"d. c #FAECED",
"f. c #FBEEEF",
"g. c #FDF8F8",
"h. c #FDF8F9",
"j. c #FEFAFA",
"k. c #FEFBFB",
"l. c #FEFDFD",
"z. c #FEFEFE",
"x. c #FFFEFE",
"c. c white",
"v. c None",
/* pixels */
"v.v.v.v.v.v.v.v.v.v.v.v.v.v.v.v.v.v.v.v.v.v.v.v.v.v.v.v.v.v.v.v.v.v.v.v.",
"v.v.v.v.v.v.v.v.v.v.v.v.v.v.v.v.v.v.v.v.v.v.v.v.v.v.v.v.v.v.v.v.v.v.v.v.",
"v.v.v.v.v.v.v.v.v.v.v.v.v.v.v.v.v.v.v.v.v.v.v.v.v.v.v.v.v.v.v.v.v.v.v.v.",
"v.v.v.v.v.v.v.v.v.v.v.v.v.v.v.v.v.v.v.v.v.v.v.v.v.v.v.v.v.v.v.v.v.v.v.v.",
"v.v.v.v.v.v.v.v.v.v.v.v.e e y e e v.v.v.v.v.v.v.v.v.v.v.v.v.v.v.v.v.v.v.",
"v.v.v.v.v.v.v.v.v.v.r v.v.v.v.v.u e v.v.v.v.v.v.v.v.v.v.v.v.v.v.v.v.v.v.",
"v.v.v.v.v.v.v.v.v.v.v.v.v.v.v.v.v.r v.v.v.v.v.v.v.v.v.v.v.v.v.v.v.v.v.v.",
"v.v.v.v.v.v.v.G m v.v.v.v.v.v.v.v.v.y v.v.v.v.v.v.v.v.v.v.v.v.v.v.v.v.v.",
"v.v.v.v.v.v.v.` ( v.v.v.v.v.v.v.v.v.e v.v.v.v.v.v.v.v.v.v.v.v.v.v.v.v.v.",
"v.v.v.v.v.v.v.v.v.v.v.v.v.v.v.v.v.v.v.v.v.v.v.v.v.v.v.v.v.v.v.v.v.v.v.v.",
"v.v.v.v.v.v.v.v.e.r.v.v.v.h.c.x.p.v.v.a v.v.v.v.v.v.v.v.v.v.v.v.v.v.v.v.",
"v.v.v.v.v.v.v.v.q.>.#.t.k.z.c.c.x.O.s r v.- H v.v.v.v.v.v.v.v.v.v.v.v.v.",
"v.v.v.v.v.v.v.} +.O o i.3.8.k.x.c.$.s r 6 = > ^ v.v.v.v.v.v.v.v.v.v.v.v.",
"v.v.v.v.v.v.v.1.# . +  .X :.9.l.x.X.s r i 5 & K v.v.v.v.v.v.v.v.v.v.v.v.",
"v.v.v.v.v.v.v.v.y.7.s.@   6.4.k.a.N s s s t 3 v.v.v.D ] v.v.v.v.v.v.v.v.",
"v.v.v.v.v.v.v.v.0.2.$.5., Y w.g.@.r s s s a r v.* g ' v.v.v.v.v.v.v.v.v.",
"v.v.v.v.v.v.v.v.&.w U u.d.f.j.;.s s s s s s t 1 $ ! { v.v.v.v.v.v.v.v.v.",
"v.v.v.v.v.v.v.v.=.0 e | <.,...e s s s s s s t 4 % k ( v.v.v.v.v.v.v.v.v.",
"v.v.v.v.v.v.v.%.-.B M *.L s q r r e e r s s s 7 = j / v.v.v.v.v.v.v.v.v.",
"v.v.v.v.v.v.c d I C b R n Q o.r e i t e r s t 4 $ J ` v.v.v.v.v.v.v.v.v.",
"v.v.v.v.v.v.z z s i i s a W Z E P v y a r r e < % f _ v.v.v.v.v.v.v.v.v.",
"v.v.v.v.v.v.e i i e s s s y x T V x t s t e a v.& = ~ _ v.v.v.v.v.v.v.v.",
"v.v.v.v.v.v.r t s s s s s s s s s s t y s e p v.= S [ v.v.v.v.v.v.v.v.v.",
"v.v.v.v.v.v.v.e y s s s s s s s s s 8 2 : l v.v.v.h ) v.v.v.v.v.v.v.v.v.",
"v.v.v.v.v.v.v.v.r u i s s s s s s 9 ; = = F v.v.v.v.v.v.v.v.v.v.v.v.v.v.",
"v.v.v.v.v.v.v.v.v.v.e e s s s s s e e v.A / v.v.v.v.v.v.v.v.v.v.v.v.v.v.",
"v.v.v.v.v.v.v.v.v.v.v.v.v.v.v.v.v.v.v.v.v.v.v.v.v.v.v.v.v.v.v.v.v.v.v.v.",
"v.v.v.v.v.v.v.v.v.v.v.v.v.v.v.v.v.v.v.v.v.v.v.v.v.v.v.v.v.v.v.v.v.v.v.v.",
"v.v.v.v.v.v.v.v.v.v.v.v.v.v.v.v.v.v.v.v.v.v.v.v.v.v.v.v.v.v.v.v.v.v.v.v.",
"v.v.v.v.v.v.v.v.v.v.v.v.v.v.v.v.v.v.v.v.v.v.v.v.v.v.v.v.v.v.v.v.v.v.v.v.",
"v.v.v.v.v.v.v.v.v.v.v.v.v.v.v.v.v.v.v.v.v.v.v.v.v.v.v.v.v.v.v.v.v.v.v.v.",
"v.v.v.v.v.v.v.v.v.v.v.v.v.v.v.v.v.v.v.v.v.v.v.v.v.v.v.v.v.v.v.v.v.v.v.v.",
"v.v.v.v.v.v.v.v.v.v.v.v.v.v.v.v.v.v.v.v.v.v.v.v.v.v.v.v.v.v.v.v.v.v.v.v.",
"v.v.v.v.v.v.v.v.v.v.v.v.v.v.v.v.v.v.v.v.v.v.v.v.v.v.v.v.v.v.v.v.v.v.v.v.",
"v.v.v.v.v.v.v.v.v.v.v.v.v.v.v.v.v.v.v.v.v.v.v.v.v.v.v.v.v.v.v.v.v.v.v.v.",
"v.v.v.v.v.v.v.v.v.v.v.v.v.v.v.v.v.v.v.v.v.v.v.v.v.v.v.v.v.v.v.v.v.v.v.v."
};
