/* XPM */
static char *result[] = {
/* columns rows colors chars-per-pixel */
"36 36 145 2 ",
"   c #211C1D",
".  c #262022",
"X  c #641D21",
"o  c #493234",
"O  c #60282C",
"+  c #584C4D",
"@  c #674346",
"#  c #B61A28",
"$  c #B71B28",
"%  c #B71B29",
"&  c #B81B28",
"*  c #B81B29",
"=  c #BC1B28",
"-  c #B81C28",
";  c #B81C29",
":  c #BA1E28",
">  c #BE1C28",
",  c #872026",
"<  c #A8363C",
"1  c #C21C27",
"2  c #C61C27",
"3  c #CF1822",
"4  c #C81D27",
"5  c #CB1D27",
"6  c #CC1D27",
"7  c #CF1D27",
"8  c #D11B25",
"9  c #D01C25",
"0  c #D11C26",
"q  c #D01D26",
"w  c #D11D26",
"e  c #D01D27",
"r  c #D11D27",
"t  c #D01E26",
"y  c #D11E26",
"u  c #D11F26",
"i  c #D01E27",
"p  c #D11E27",
"a  c #D11F27",
"s  c #D21F26",
"d  c #CA2D27",
"f  c #CC2E27",
"g  c #C02328",
"h  c #C32628",
"j  c #C42728",
"k  c #CA2C28",
"l  c #D32126",
"z  c #D22027",
"x  c #D42226",
"c  c #D02427",
"v  c #D52426",
"b  c #D72726",
"n  c #D82926",
"m  c #D12128",
"M  c #D72C28",
"N  c #D62C29",
"B  c #D23327",
"V  c #D43427",
"C  c #D63627",
"Z  c #DE3E26",
"A  c #DF3F26",
"S  c #D2322E",
"D  c #D7342C",
"F  c #D93C2E",
"G  c #D32730",
"H  c #D42D35",
"J  c #C1363D",
"K  c #D33B32",
"L  c #CE4834",
"P  c #D44435",
"I  c #D44836",
"U  c #D65F3E",
"Y  c #DA5939",
"T  c #E24126",
"R  c #E34326",
"E  c #EA4625",
"W  c #E94925",
"Q  c #EA4926",
"!  c #EA4A26",
"~  c #EC4925",
"^  c #ED4A25",
"/  c #EE4A25",
"(  c #ED4926",
")  c #EC4B26",
"_  c #EF4D25",
"`  c #F04D25",
"'  c #F04E25",
"]  c #F14F25",
"[  c #F04E26",
"{  c #F14F26",
"}  c #F15025",
"|  c #C63E45",
" . c #D63941",
".. c #D73C44",
"X. c #B47C7F",
"o. c #D9484F",
"O. c #D95158",
"+. c #DC575E",
"@. c #DF7241",
"#. c #CB6469",
"$. c #E06B71",
"%. c #E16B71",
"&. c #E16D72",
"*. c #DE8248",
"=. c #DD894C",
"-. c #D39B50",
";. c #DB9D55",
":. c #DEBC61",
">. c #E47B80",
",. c #A28385",
"<. c #BC9496",
"1. c #B5A8A9",
"2. c #E7898E",
"3. c #E99397",
"4. c #E99398",
"5. c #E4A1A4",
"6. c #EBA0A4",
"7. c #ECA4A7",
"8. c #ECA5A9",
"9. c #EEAFB2",
"0. c #F0B6B9",
"q. c #F0B9BC",
"w. c #F1BBBE",
"e. c #D2D1D1",
"r. c #F3C8C9",
"t. c #F4C8CA",
"y. c #F5CECF",
"u. c #F5CFD1",
"i. c #F7D7D9",
"p. c #F8DEE0",
"a. c #F9E2E3",
"s. c #FAE3E5",
"d. c #F9E5E6",
"f. c #FBEBEC",
"g. c #FBECED",
"h. c #FCF0F0",
"j. c #FCF0F1",
"k. c #FEFAFB",
"l. c #FEFBFB",
"z. c #FEFCFC",
"x. c #FEFDFE",
"c. c #FEFEFE",
"v. c #FFFEFE",
"b. c white",
"n. c None",
/* pixels */
"n.n.n.n.n.n.n.n.n.n.n.n.n.n.n.n.n.n.n.n.n.n.n.n.n.n.n.n.n.n.n.n.n.n.n.n.",
"n.n.n.n.n.n.n.n.n.n.n.n.n.n.n.n.n.n.n.n.n.n.n.n.n.n.n.n.n.n.n.n.n.n.n.n.",
"n.n.n.n.n.n.n.n.n.n.n.n.n.n.n.n.n.n.n.n.n.n.n.n.n.n.n.n.n.n.n.n.n.n.n.n.",
"n.n.n.n.n.n.n.n.n.n.n.n.n.n.n.n.n.n.n.n.n.n.n.n.n.n.n.n.n.n.n.n.n.n.n.n.",
"n.n.n.n.n.n.n.n.n.n.n.n.n.n.n.n.n.n.n.n.n.n.n.n.n.n.n.n.n.n.n.n.n.n.n.n.",
"n.n.n.n.n.n.n.n.n.n.n.n.n.n.n.n.n.n.n.n.n.n.n.n.n.n.n.n.n.n.n.n.n.n.n.n.",
"n.n.n.n.n.n.n.n.n.n.n.n.n.n.n.n.n.n.n.n.n.n.n.n.n.n.n.n.n.n.n.n.n.n.n.n.",
"n.n.n.n.n.n.n.n.n.n.n.n.q q q p n.n.n.n.n.n.n.n.n.n.n.n.n.n.n.n.n.n.n.n.",
"n.n.n.n.n.n.n.n.n.n.n.q n.n.n.n.w n.n.n.n.n.n.n.n.n.n.n.n.n.n.n.n.n.n.n.",
"n.n.n.n.n.n.n.n.n.q n.n.n.n.n.n.n.q n.n.n.n.n.n.n.n.n.n.n.n.n.n.n.n.n.n.",
"n.n.n.n.n.n.n.v l n.n.n.n.n.n.n.n.n.n.n.n.n.n.n.n.n.n.n.n.n.n.n.n.n.n.n.",
"n.n.n.n.n.n.n.( E n.n.n.n.n.n.n.n.n.q n.n.n.n.n.n.n.n.n.n.n.n.n.n.n.n.n.",
"n.n.n.n.n.n.n.~ ^ n.n.n.n.n.n.n.n.n.w n.n.n.n.n.n.n.n.n.n.n.n.n.n.n.n.n.",
"n.n.n.n.n.n.n.n.n.n.n.n.n.a.h.g.n.n.n.t n.n.n.n.n.n.n.n.n.n.n.n.n.n.n.n.",
"n.n.n.n.n.n.n.n.0.>.9.n.j.c.c.v.k.+.n.w n.h W n.n.n.n.n.n.n.n.n.n.n.n.n.",
"n.n.n.n.n.n.n.o.5.,.< p.s.d.c.b.b.&.p w n.; j ! n.n.n.n.n.n.n.n.n.n.n.n.",
"n.n.n.n.n.n.n.O., . o <.O | q.c.v.%.p w q 1 # R n.n.n.n.n.n.n.n.n.n.n.n.",
"n.n.n.n.n.n.n.r.#.@ 1.+   e.w.l.z. .p p r q > d n.n.n._ / n.n.n.n.n.n.n.",
"n.n.n.n.n.n.n.n.p.i.8.X.X J 3.x.4.9 p p p i q n.n.g ) [ n.n.n.n.n.n.n.n.",
"n.n.n.n.n.n.n.n.n.3 ..f.6.7.v.t.G p p p p p i n.% A { n.n.n.n.n.n.n.n.n.",
"n.n.n.n.n.n.n.n.;.0 i $.y.u.2.H p p p p p p e 4 $ V ] n.n.n.n.n.n.n.n.n.",
"n.n.n.n.n.n.n.-.:.8 q U K p w e q q w r p p p 6 & ; T ' n.n.n.n.n.n.n.n.",
"n.n.n.n.n.n.n.L =.D M *.N S I w r y q w r p p 5 $ C } n.n.n.n.n.n.n.n.n.",
"n.n.n.n.n.n.x p p q e e s @.P m a l t p w t e 2 $ C ] n.n.n.n.n.n.n.n.n.",
"n.n.n.n.n.n.w s y q p p p z n Y F b e p r q e 1 - : Q ` n.n.n.n.n.n.n.n.",
"n.n.n.n.n.n.q t y w p p p p r y r u p p e q p n.- k ' n.n.n.n.n.n.n.n.n.",
"n.n.n.n.n.n.n.e p p p p p p p p p i w 7 6 c n.n.n.B ] n.n.n.n.n.n.n.n.n.",
"n.n.n.n.n.n.n.w r e p p p p p p p 7 = * $ f n.n.n.n.n.n.n.n.n.n.n.n.n.n.",
"n.n.n.n.n.n.n.n.n.y q q p p p p p w 6 > g Z n.n.n.n.n.n.n.n.n.n.n.n.n.n.",
"n.n.n.n.n.n.n.n.n.n.n.n.q q y w q n.n.n.n.n.n.n.n.n.n.n.n.n.n.n.n.n.n.n.",
"n.n.n.n.n.n.n.n.n.n.n.n.n.n.n.n.n.n.n.n.n.n.n.n.n.n.n.n.n.n.n.n.n.n.n.n.",
"n.n.n.n.n.n.n.n.n.n.n.n.n.n.n.n.n.n.n.n.n.n.n.n.n.n.n.n.n.n.n.n.n.n.n.n.",
"n.n.n.n.n.n.n.n.n.n.n.n.n.n.n.n.n.n.n.n.n.n.n.n.n.n.n.n.n.n.n.n.n.n.n.n.",
"n.n.n.n.n.n.n.n.n.n.n.n.n.n.n.n.n.n.n.n.n.n.n.n.n.n.n.n.n.n.n.n.n.n.n.n.",
"n.n.n.n.n.n.n.n.n.n.n.n.n.n.n.n.n.n.n.n.n.n.n.n.n.n.n.n.n.n.n.n.n.n.n.n.",
"n.n.n.n.n.n.n.n.n.n.n.n.n.n.n.n.n.n.n.n.n.n.n.n.n.n.n.n.n.n.n.n.n.n.n.n."
};
