/* XPM */
static char *result[] = {
/* columns rows colors chars-per-pixel */
"30 30 9 1 ",
"  c #F9CF2B",
". c #FACF2B",
"X c #F9CF2C",
"o c #FACF2C",
"O c #F9D02B",
"+ c #FAD02B",
"@ c #F9D02C",
"# c #FAD02C",
"$ c None",
/* pixels */
"$$$$$$$$$$$$$$$$$$$$$$$$$$$$$$",
"$$$$$$$$$$$$$$$$$$$$$$$$$$$$$$",
"$$$$$$$$$$$$$$$$$$$$$$$$$$$$$$",
"$$$$$$$$$$$$$$$$$$$$$$$$$$$$$$",
"$$$$$$$$$$$$$$$$$$$$$$$$$$$$$$",
"$$$$$$$$$$$$o###@X$$$$$$$$$$$$",
"$$$$$$$$$$ @######@.$$$$$$$$$$",
"$$$$$$$$$Oo##########$$$$$$$$$",
"$$$$$$$$+############O$$$$$$$$",
"$$$$$$$ ##############@$$$$$$$",
"$$$$$$$##@.$######X$X##+$$$$$$",
"$$$$$$###X$$$####o$$$###$$$$$$",
"$$$$$$O##$$$$@###$$$$###$$$$$$",
"$$$$$$###$$$$@###$$$$###o$$$$$",
"$$$$$$###$$$$####$$$$###X$$$$$",
"$$$$$$###O$$$####O$$$###X$$$$$",
"$$$$$$####$$+####O$$O###X$$$$$",
"$$$$$$#####ooo X oo#####X$$$$$",
"$$$$$$######$$$$$$@#####X$$$$$",
"$$$$$$######$$$$$$O#####X$$$$$",
"$$$$$$######$$$$$$O#####X$$$$$",
"$$$$$$######.o@  #o#####X$$$$$",
"$$$$$$##################X$$$$$",
"$$$$$$##oO#### @####@ ##X$$$$$",
"$$$$$$## $@###@$###O$$+#X$$$$$",
"$$$$$$#.$$.## $$o## $$.#X$$$$$",
"$$$$$$+$$$$oo$$$$X.$$$$+ $$$$$",
"$$$$$$$$$$$$$$$$$$$$$$$$$$$$$$",
"$$$$$$$$$$$$$$$$$$$$$$$$$$$$$$",
"$$$$$$$$$$$$$$$$$$$$$$$$$$$$$$"
};
