/* XPM */
static char *result[] = {
/* columns rows colors chars-per-pixel */
"36 36 149 2 ",
"   c #1F1E1F",
".  c #251D1E",
"X  c #2F2123",
"o  c #3D3B3B",
"O  c #562B2E",
"+  c #6B5153",
"@  c #705D5E",
"#  c #78696A",
"$  c #B71B28",
"%  c #B81B28",
"&  c #B91B28",
"*  c #BA1B28",
"=  c #B81C28",
"-  c #B91C28",
";  c #B91D28",
":  c #B91C29",
">  c #BA1C28",
",  c #BC1C28",
"<  c #BC1F28",
"1  c #A42D34",
"2  c #C31C27",
"3  c #C61C27",
"4  c #C91D27",
"5  c #CA1D27",
"6  c #CD1D26",
"7  c #CC1D27",
"8  c #CD1D27",
"9  c #CF1D27",
"0  c #C01C28",
"q  c #C11C28",
"w  c #D01A25",
"e  c #D01B26",
"r  c #D01D26",
"t  c #D11D26",
"y  c #D01D27",
"u  c #D11D27",
"i  c #D01E26",
"p  c #D11E26",
"a  c #D11F26",
"s  c #D01E27",
"d  c #D11E27",
"f  c #D21F26",
"g  c #D11F28",
"h  c #C12328",
"j  c #C12428",
"k  c #C42628",
"l  c #C72928",
"z  c #D22026",
"x  c #D32127",
"c  c #D32226",
"v  c #D52426",
"b  c #D52527",
"n  c #D52626",
"m  c #D72826",
"M  c #D72A27",
"N  c #D82826",
"B  c #D1212A",
"V  c #D22729",
"C  c #D52928",
"Z  c #D52C2A",
"A  c #D42D2B",
"S  c #D12E2D",
"D  c #D32E2C",
"F  c #D82F29",
"G  c #D23327",
"H  c #D33327",
"J  c #D33427",
"K  c #D63827",
"L  c #D93826",
"P  c #D83926",
"I  c #DB3C27",
"U  c #DD3D26",
"Y  c #D7342B",
"T  c #D73B2F",
"R  c #D42F38",
"E  c #D53E3A",
"W  c #E03626",
"Q  c #E33A26",
"!  c #D65139",
"~  c #E04026",
"^  c #E44426",
"/  c #E84725",
"(  c #EA4926",
")  c #ED4B25",
"_  c #EE4B26",
"`  c #EE4D26",
"'  c #EF4D26",
"]  c #F04E25",
"[  c #F04F25",
"{  c #F04E26",
"}  c #F14F26",
"|  c #F15025",
" . c #F25025",
".. c #D63D44",
"X. c #AE494E",
"o. c #C4484E",
"O. c #D34F55",
"+. c #DA4950",
"@. c #DA4B52",
"#. c #DB4E55",
"$. c #DD585F",
"%. c #D76942",
"&. c #CA7944",
"*. c #DB7042",
"=. c #DE5D63",
"-. c #DE6167",
";. c #DE6268",
":. c #DF656C",
">. c #CB757A",
",. c #E0676E",
"<. c #E06F6C",
"1. c #E17076",
"2. c #E27A7F",
"3. c #DA8E50",
"4. c #DCAC5B",
"5. c #DCAD5C",
"6. c #E1D369",
"7. c #BE9396",
"8. c #D49397",
"9. c #E78D91",
"0. c #CAA1A3",
"q. c #EBA2A6",
"w. c #EFB3B6",
"e. c #F0B5B8",
"r. c #F1BBBE",
"t. c #F1BDC0",
"y. c #EECDCF",
"u. c #F0C4C6",
"i. c #EAD2D3",
"p. c #F5D0D1",
"a. c #F6D4D5",
"s. c #F6D5D7",
"d. c #F7D7D9",
"f. c #F7D9DA",
"g. c #F7D9DB",
"h. c #F8DDDE",
"j. c #F9E2E3",
"k. c #FAE6E7",
"l. c #FAE7E8",
"z. c #F8EDED",
"x. c #FBEEEE",
"c. c #FCF3F3",
"v. c #FEFAFA",
"b. c #FEFCFC",
"n. c #FEFDFD",
"m. c #FEFEFE",
"M. c #FFFEFE",
"N. c white",
"B. c None",
/* pixels */
"B.B.B.B.B.B.B.B.B.B.B.B.B.B.B.B.B.B.B.B.B.B.B.B.B.B.B.B.B.B.B.B.B.B.B.B.",
"B.B.B.B.B.B.B.B.B.B.B.B.B.B.B.B.B.B.B.B.B.B.B.B.B.B.B.B.B.B.B.B.B.B.B.B.",
"B.B.B.B.B.B.B.B.B.B.B.B.B.B.B.B.B.B.B.B.B.B.B.B.B.B.B.B.B.B.B.B.B.B.B.B.",
"B.B.B.B.B.B.B.B.B.B.B.B.B.B.B.B.B.B.B.B.B.B.B.B.B.B.B.B.B.B.B.B.B.B.B.B.",
"B.B.B.B.B.B.B.B.B.B.B.B.B.B.B.B.B.B.B.B.B.B.B.B.B.B.B.B.B.B.B.B.B.B.B.B.",
"B.B.B.B.B.B.B.B.B.B.B.B.B.B.B.B.B.B.B.B.B.B.B.B.B.B.B.B.B.B.B.B.B.B.B.B.",
"B.B.B.B.B.B.B.B.B.B.B.B.B.B.B.B.B.B.B.B.B.B.B.B.B.B.B.B.B.B.B.B.B.B.B.B.",
"B.B.B.B.B.B.B.B.B.B.B.B.B.B.B.B.B.B.B.B.B.B.B.B.B.B.B.B.B.B.B.B.B.B.B.B.",
"B.B.B.B.B.B.B.B.B.B.B.B.B.B.B.B.B.B.B.B.B.B.B.B.B.B.B.B.B.B.B.B.B.B.B.B.",
"B.B.B.B.B.B.B.B.B.B.B.B.B.B.B.B.B.B.B.B.B.B.B.B.B.B.B.B.B.B.B.B.B.B.B.B.",
"B.B.B.B.B.B.B.B.B.B.B.B.B.B.B.B.B.B.B.B.B.B.B.B.B.B.B.B.B.B.B.B.B.B.B.B.",
"B.B.B.B.B.B.B.B.B.B.B.r r t B.r r B.B.B.B.B.B.B.B.B.B.B.B.B.B.B.B.B.B.B.",
"B.B.B.B.B.B.B.B.B.B.t B.B.B.B.B.i r B.B.B.B.B.B.B.B.B.B.B.B.B.B.B.B.B.B.",
"B.B.B.B.B.B.B.B.B.B.B.B.B.B.B.B.B.t B.B.B.B.B.B.B.B.B.B.B.B.B.B.B.B.B.B.",
"B.B.B.B.B.B.B.Q W B.B.B.B.B.B.B.B.B.t B.B.B.B.B.B.B.B.B.B.B.B.B.B.B.B.B.",
"B.B.B.B.B.B.B.' _ B.B.B.B.B.B.B.B.B.r B.B.B.B.B.B.B.B.B.B.B.B.B.B.B.B.B.",
"B.B.B.B.B.B.B.B.B.B.B.B.B.B.h.a.B.B.B.t B.B.B.B.B.B.B.B.B.B.B.B.B.B.B.B.",
"B.B.B.B.B.B.B.B.t.e.p.B.g.v.m.m.k.B.B.y B.J B.B.B.B.B.B.B.B.B.B.B.B.B.B.",
"B.B.B.B.B.B.B.:.r.8.O.s.n.m.N.N.M.-.d t B.: G B.B.B.B.B.B.B.B.B.B.B.B.B.",
"B.B.B.B.B.B.B...X.o O y.>.2.x.M.N.1.d t 6 > ; ^ B.B.B.B.B.B.B.B.B.B.B.B.",
"B.B.B.B.B.B.B.q.1 X # @ . 0.w.b.M.#.d d d 8 * K B.B.B.B.B.B.B.B.B.B.B.B.",
"B.B.B.B.B.B.B.B.j.i.z.+   7.9.b.f.g d d d y 5 B.B.& L } B.B.B.B.B.B.B.B.",
"B.B.B.B.B.B.B.B.B.,.$.u.o.+.d.c.@.d d d d d t B.% H | B.B.B.B.B.B.B.B.B.",
"B.B.B.B.B.B.B.B.3.u B t.b.n.l.=.r d d d d d y 3 $ ~ | B.B.B.B.B.B.B.B.B.",
"B.B.B.B.B.B.B.B.5.e t E <.;.R r t p d d d d d 5 = h ( ] B.B.B.B.B.B.B.B.",
"B.B.B.B.B.B.B.&.6.D V 4.S u w t t p r t d d d 7 = l ) B.B.B.B.B.B.B.B.B.",
"B.B.B.B.B.B.v f A C b Y m *.%.t r r r r t d y 4 $ U { B.B.B.B.B.B.B.B.B.",
"B.B.B.B.B.B.a z d t p d d Z M ! T N u s d r r 2 = j ` B.B.B.B.B.B.B.B.B.",
"B.B.B.B.B.B.r p p r d d d d z F x c u d r r d B.% < / [ B.B.B.B.B.B.B.B.",
"B.B.B.B.B.B.r y d d d d d d d d d d y u y a n B.B.J  .B.B.B.B.B.B.B.B.B.",
"B.B.B.B.B.B.B.r u d d d d d d d d d 5 q , k B.B.B.B.] B.B.B.B.B.B.B.B.B.",
"B.B.B.B.B.B.B.B.r i r d d d d d d 9 0 > - I B.B.B.B.B.B.B.B.B.B.B.B.B.B.",
"B.B.B.B.B.B.B.B.B.B.i r r d p s d r p B.P B.B.B.B.B.B.B.B.B.B.B.B.B.B.B.",
"B.B.B.B.B.B.B.B.B.B.B.B.B.B.B.B.B.B.B.B.B.B.B.B.B.B.B.B.B.B.B.B.B.B.B.B.",
"B.B.B.B.B.B.B.B.B.B.B.B.B.B.B.B.B.B.B.B.B.B.B.B.B.B.B.B.B.B.B.B.B.B.B.B.",
"B.B.B.B.B.B.B.B.B.B.B.B.B.B.B.B.B.B.B.B.B.B.B.B.B.B.B.B.B.B.B.B.B.B.B.B."
};
