/* XPM */
static char *result[] = {
/* columns rows colors chars-per-pixel */
"36 36 144 2 ",
"   c #201C1D",
".  c #221F20",
"X  c #461C1E",
"o  c #4E3C3D",
"O  c #7F2227",
"+  c #594A4B",
"@  c #786D6E",
"#  c #881A20",
"$  c #B71B28",
"%  c #B71B29",
"&  c #B71C28",
"*  c #B81C28",
"=  c #B81C29",
"-  c #BC1C28",
";  c #872E33",
":  c #BD2028",
">  c #BE2128",
",  c #BE2228",
"<  c #BF2328",
"1  c #C31C27",
"2  c #C51C27",
"3  c #C71D27",
"4  c #C81C27",
"5  c #C91D27",
"6  c #CA1C27",
"7  c #CB1D27",
"8  c #CC1D27",
"9  c #CF1D27",
"0  c #D01B25",
"q  c #D11C26",
"w  c #D01D26",
"e  c #D11D26",
"r  c #D01D27",
"t  c #D11D27",
"y  c #D01E26",
"u  c #D11E26",
"i  c #D01E27",
"p  c #D11E27",
"a  c #D01F27",
"s  c #D21F26",
"d  c #CD2827",
"f  c #CC2B27",
"g  c #CA2C27",
"h  c #CD2F27",
"j  c #CE2F27",
"k  c #C62828",
"l  c #D02027",
"z  c #D32126",
"x  c #D52526",
"c  c #D62526",
"v  c #D72826",
"b  c #D82826",
"n  c #D1212A",
"m  c #D22A2B",
"M  c #D62A28",
"N  c #CF3027",
"B  c #D03027",
"V  c #D03227",
"C  c #DC3C26",
"Z  c #DD3E26",
"A  c #D5302B",
"S  c #D2322E",
"D  c #D2362F",
"F  c #D93028",
"G  c #D9372C",
"H  c #D4382F",
"J  c #D9382C",
"K  c #D32A32",
"L  c #C83139",
"P  c #D43038",
"I  c #D54534",
"U  c #DB5537",
"Y  c #DD5636",
"T  c #D5553B",
"R  c #E14126",
"E  c #E14226",
"W  c #E54526",
"Q  c #E64526",
"!  c #EB4625",
"~  c #E94826",
"^  c #ED4A25",
"/  c #EF4D25",
"(  c #EE4D26",
")  c #EF4E26",
"_  c #F04E25",
"`  c #F14F25",
"'  c #F04D26",
"]  c #F14F26",
"[  c #F15025",
"{  c #F25125",
"}  c #DA623D",
"|  c #DE673D",
" . c #D73B43",
".. c #9C7A7C",
"X. c #A77679",
"o. c #DB4F56",
"O. c #D87D49",
"+. c #C45D62",
"@. c #DD5A61",
"#. c #DF6167",
"$. c #E0676D",
"%. c #E07076",
"&. c #E17076",
"*. c #C98C4B",
"=. c #D9894F",
"-. c #DBA257",
";. c #DFCB67",
":. c #E47B81",
">. c #D9898D",
",. c #C79194",
"<. c #E68489",
"1. c #E4868B",
"2. c #E78D92",
"3. c #E9A2A6",
"4. c #ECA2A6",
"5. c #EDA8AB",
"6. c #EFB2B3",
"7. c #EFB0B4",
"8. c #EFB1B4",
"9. c #F0B4B8",
"0. c #F0B5B8",
"q. c #F0B7BA",
"w. c #D0C7C7",
"e. c #F4C9CC",
"r. c #F5CDCF",
"t. c #F7CED0",
"y. c #F5D1D3",
"u. c #F6D5D7",
"i. c #F7D9DA",
"p. c #F7DADB",
"a. c #E8E0E0",
"s. c #FAE3E4",
"d. c #FAE5E6",
"f. c #FBECED",
"g. c #FCF3F3",
"h. c #FDF7F8",
"j. c #FEFAFA",
"k. c #FEFBFB",
"l. c #FEFCFC",
"z. c #FFFDFD",
"x. c #FEFEFE",
"c. c #FFFEFE",
"v. c white",
"b. c None",
/* pixels */
"b.b.b.b.b.b.b.b.b.b.b.b.b.b.b.b.b.b.b.b.b.b.b.b.b.b.b.b.b.b.b.b.b.b.b.b.",
"b.b.b.b.b.b.b.b.b.b.b.b.b.b.b.b.b.b.b.b.b.b.b.b.b.b.b.b.b.b.b.b.b.b.b.b.",
"b.b.b.b.b.b.b.b.b.b.b.b.b.b.b.b.b.b.b.b.b.b.b.b.b.b.b.b.b.b.b.b.b.b.b.b.",
"b.b.b.b.b.b.b.b.b.b.b.b.b.b.b.b.b.b.b.b.b.b.b.b.b.b.b.b.b.b.b.b.b.b.b.b.",
"b.b.b.b.b.b.b.b.b.b.b.b.b.b.b.b.b.b.b.b.b.b.b.b.b.b.b.b.b.b.b.b.b.b.b.b.",
"b.b.b.b.b.b.b.b.b.b.b.b.b.b.b.b.b.b.b.b.b.b.b.b.b.b.b.b.b.b.b.b.b.b.b.b.",
"b.b.b.b.b.b.b.b.b.b.b.b.b.b.b.b.b.b.b.b.b.b.b.b.b.b.b.b.b.b.b.b.b.b.b.b.",
"b.b.b.b.b.b.b.b.b.b.b.b.b.b.b.b.b.b.b.b.b.b.b.b.b.b.b.b.b.b.b.b.b.b.b.b.",
"b.b.b.b.b.b.b.b.b.b.b.b.b.b.b.b.b.b.b.b.b.b.b.b.b.b.b.b.b.b.b.b.b.b.b.b.",
"b.b.b.b.b.b.b.b.b.b.b.b.b.b.b.b.b.b.b.b.b.b.b.b.b.b.b.b.b.b.b.b.b.b.b.b.",
"b.b.b.b.b.b.b.b.b.b.b.b.b.b.b.b.b.b.b.b.b.b.b.b.b.b.b.b.b.b.b.b.b.b.b.b.",
"b.b.b.b.b.b.b.b.b.b.b.b.b.b.b.b.b.b.b.b.b.b.b.b.b.b.b.b.b.b.b.b.b.b.b.b.",
"b.b.b.b.b.b.b.b.b.b.b.b.b.b.b.b.b.b.b.b.b.b.b.b.b.b.b.b.b.b.b.b.b.b.b.b.",
"b.b.b.b.b.b.b.b.b.b.b.b.w w w t b.b.b.b.b.b.b.b.b.b.b.b.b.b.b.b.b.b.b.b.",
"b.b.b.b.b.b.b.b.b.b.w b.b.b.b.b.t b.b.b.b.b.b.b.b.b.b.b.b.b.b.b.b.b.b.b.",
"b.b.b.b.b.b.b.b.b.w b.b.b.b.b.b.b.w b.b.b.b.b.b.b.b.b.b.b.b.b.b.b.b.b.b.",
"b.b.b.b.b.b.b.b c b.b.b.b.b.b.b.b.b.e b.b.b.b.b.b.b.b.b.b.b.b.b.b.b.b.b.",
"b.b.b.b.b.b.b.' ^ b.b.b.b.b.b.b.b.b.w b.b.b.b.b.b.b.b.b.b.b.b.b.b.b.b.b.",
"b.b.b.b.b.b.b.! b.b.b.b.b.b.b.b.b.b.b.b.b.b.b.b.b.b.b.b.b.b.b.b.b.b.b.b.",
"b.b.b.b.b.b.b.b.b.e.b.b.b.f.c.l.u.b.b.r b.b.b.b.b.b.b.b.b.b.b.b.b.b.b.b.",
"b.b.b.b.b.b.b.b.q.1.<.b.h.x.x.v.l.@.b.w b.> Z b.b.b.b.b.b.b.b.b.b.b.b.b.",
"b.b.b.b.b.b.b. .>.@ ; s.t.y.x.v.v.&.p t 6 * < ~ b.b.b.b.b.b.b.b.b.b.b.b.",
"b.b.b.b.b.b.b.%.# . o ..X +.0.x.c.#.p w w 3 % E b.b.b.b.b.b.b.b.b.b.b.b.",
"b.b.b.b.b.b.b.r.3.X.a.+   w.7.j.g.K p p p t 1 , b.b.f _ / b.b.b.b.b.b.b.",
"b.b.b.b.b.b.b.b.r.9.2.,.O L 5.k.:.w p p p p w b.b.k ( b.b.b.b.b.b.b.b.b.",
"b.b.b.b.b.b.b.b.O.0 P d.i.p.z.4.n p p p p p w 4 $ R [ b.b.b.b.b.b.b.b.b.",
"b.b.b.b.b.b.b.b.-.q w o.6.8.$.n p p p p p p r 5 $ h ] b.b.b.b.b.b.b.b.b.",
"b.b.b.b.b.b.b.*.;.l a =.D e t r e w e e p p p 8 * : Q _ b.b.b.b.b.b.b.b.",
"b.b.b.b.b.b.c A } J F | M I T e e u e y e p t 7 $ C ) b.b.b.b.b.b.b.b.b.",
"b.b.b.b.b.b.z s p w t t p U H S m x u p e t r 2 & j ` b.b.b.b.b.b.b.b.b.",
"b.b.b.b.b.b.e u s w p p p y v Y G x r p t w i b.* $ Q ` b.b.b.b.b.b.b.b.",
"b.b.b.b.b.b.e u p p p p p p p i p u p p r w r b.* N { b.b.b.b.b.b.b.b.b.",
"b.b.b.b.b.b.b.y t p p p p p p p p p r 7 2 d b.b.b.B ` b.b.b.b.b.b.b.b.b.",
"b.b.b.b.b.b.b.b.t e p p p p p p p 9 - = $ V b.b.b.b.b.b.b.b.b.b.b.b.b.b.",
"b.b.b.b.b.b.b.b.b.w y i p e p w u p 9 1 g W b.b.b.b.b.b.b.b.b.b.b.b.b.b.",
"b.b.b.b.b.b.b.b.b.b.b.b.b.y r p b.b.b.b.b.b.b.b.b.b.b.b.b.b.b.b.b.b.b.b."
};
