/* XPM */
static char *result[] = {
/* columns rows colors chars-per-pixel */
"30 30 9 1 ",
"  c #F9CF2B",
". c #FACF2B",
"X c #F9CF2C",
"o c #FACF2C",
"O c #F9D02B",
"+ c #FAD02B",
"@ c #F9D02C",
"# c #FAD02C",
"$ c None",
/* pixels */
"$$$$$$$$$$$$$$$$$$$$$$$$$$$$$$",
"$$$$$$$$$$$$$$$$$$$$$$$$$$$$$$",
"$$$$$$$$$$$$$$$$$$$$$$$$$$$$$$",
"$$$$$$$$$$$$$$$$$$$$$$$$$$$$$$",
"$$$$$$$$$$$$$$$$$$$$$$$$$$$$$$",
"$$$$$$$$$$$$$$$$$$$$$$$$$$$$$$",
"$$$$$$$$$$$$$$$$$$$$$$$$$$$$$$",
"$$$$$$$$$$$$O####o+$$$$$$$$$$$",
"$$$$$$$$$$X#######@ $$$$$$$$$$",
"$$$$$$$$$###########@O$$$$$$$$",
"$$$$$$$$@#############$$$$$$$$",
"$$$$$$$@##############o$$$$$$$",
"$$$$$$.###$$ ####X$$o###$$$$$$",
"$$$$$$### $$$#### $$$###$$$$$$",
"$$$$$$O##$$$$@###$$$$###$$$$$$",
"$$$$$$###$$$$####$$$$###o$$$$$",
"$$$$$$###$$$$@###$$$$###o$$$$$",
"$$$$$$###@$$$#### $$$###X$$$$$",
"$$$$$$###@O$o#####.$@###X$$$$$",
"$$$$$$###### X$$$#o#####X$$$$$",
"$$$$$$######$$$$$$X#####X$$$$$",
"$$$$$$######$$$$$$@#####X$$$$$",
"$$$$$$######o$$$$$######X$$$$$",
"$$$$$$######o #@.#######X$$$$$",
"$$$$$$##################X$$$$$",
"$$$$$$##@O####o@####O@##X$$$$$",
"$$$$$$#o$$@##+$$###+$$X#X$$$$$",
"$$$$$$#o$$$## $$.##+$$##X$$$$$",
"$$$$$$#$$$$oX$$$$##$$$$@$$$$$$",
"$$$$$$$$$$$$$$$$$$$$$$$$$$$$$$"
};
